<svg width="36" height="36" viewBox="0 0 36 36" fill="none" xmlns="http://www.w3.org/2000/svg">
<g id="cake" clip-path="url(#clip0_6469_14913)">
<path id="Vector" d="M18 9C19.665 9 21 7.65 21 6C21 5.43 20.85 4.905 20.565 4.455L18 0L15.435 4.455C15.15 4.905 15 5.43 15 6C15 7.65 16.35 9 18 9ZM24.9 23.985L23.295 22.38L21.675 23.985C19.725 25.935 16.305 25.95 14.34 23.985L12.735 22.38L11.1 23.985C10.125 24.96 8.82 25.5 7.44 25.5C6.345 25.5 5.34 25.155 4.5 24.585V31.5C4.5 32.325 5.175 33 6 33H30C30.825 33 31.5 32.325 31.5 31.5V24.585C30.66 25.155 29.655 25.5 28.56 25.5C27.18 25.5 25.875 24.96 24.9 23.985ZM27 13.5H19.5V10.5H16.5V13.5H9C6.51 13.5 4.5 15.51 4.5 18V20.31C4.5 21.93 5.82 23.25 7.44 23.25C8.22 23.25 8.97 22.95 9.51 22.395L12.72 19.2L15.915 22.395C17.025 23.505 18.96 23.505 20.07 22.395L23.28 19.2L26.475 22.395C27.03 22.95 27.765 23.25 28.545 23.25C30.165 23.25 31.485 21.93 31.485 20.31V18C31.5 15.51 29.49 13.5 27 13.5Z" fill="black"/>
</g>
<defs>
<clipPath id="clip0_6469_14913">
<rect width="36" height="36" fill="white"/>
</clipPath>
</defs>
</svg>
