<svg width="14" height="16" viewBox="0 0 14 16" fill="none" xmlns="http://www.w3.org/2000/svg">
<g id="call">
<path id="Vector" d="M5.28289 1.31617L5.85077 2.47911C6.36326 3.52859 6.15753 4.90531 5.35037 5.82781C5.35037 5.82781 4.37139 6.94682 6.14644 8.97552C7.92093 11.0035 8.90067 9.88532 8.90067 9.88532C9.70786 8.96282 10.9125 8.72772 11.8308 9.31342L12.8483 9.96242C14.235 10.8468 14.3987 13.0692 13.1799 14.4622C12.4476 15.2992 11.5503 15.9505 10.5585 15.9934C8.88895 16.0658 6.05349 15.5829 3.20924 12.3323C0.36499 9.08172 -0.0575644 5.84121 0.00573306 3.9331C0.0433318 2.79961 0.613201 1.77423 1.34558 0.937232C2.56442 -0.455721 4.50902 -0.26856 5.28289 1.31617Z" fill="#292D32"/>
</g>
</svg>
