<svg width="20" height="20" viewBox="0 0 20 20" fill="none" xmlns="http://www.w3.org/2000/svg">
<path d="M16.2996 13.3356L14.2751 11.9211C14.0104 11.7365 13.7009 11.6391 13.38 11.6391C12.8698 11.6391 12.3908 11.8893 12.099 12.308L11.6291 12.9816C10.8414 12.4533 9.96251 11.7157 9.12465 10.878C8.28694 10.0403 7.54948 9.16138 7.02137 8.37372L7.69459 7.90375C8.03776 7.66479 8.26695 7.30682 8.33973 6.89606C8.41236 6.4856 8.32081 6.07086 8.08155 5.72754L6.66737 3.703C6.37165 3.28003 5.89451 3.02734 5.39082 3.02734C5.21626 3.02734 5.04506 3.05817 4.88209 3.11829C4.697 3.18665 4.52458 3.27057 4.35551 3.37677L4.07597 3.57361C4.00608 3.62793 3.94108 3.68744 3.87883 3.74969C3.53779 4.09058 3.29579 4.52209 3.15922 5.03235C2.57649 7.2168 4.02012 10.52 6.75145 13.2513C9.04515 15.545 11.8007 16.9699 13.9426 16.9702H13.9428C14.3096 16.9702 14.6553 16.9275 14.9706 16.8433C15.4808 16.7068 15.9124 16.4648 16.2536 16.1237C16.3155 16.0617 16.3747 15.9967 16.4382 15.9146L16.6352 15.6335C16.7315 15.4797 16.8152 15.3073 16.8845 15.1208C17.1227 14.4769 16.8822 13.7427 16.2996 13.3356Z" fill="white"/>
</svg>
