<svg width="14" height="16" viewBox="0 0 14 16" fill="none" xmlns="http://www.w3.org/2000/svg">
<g id="drop-off">
<path id="Ellipse 4" d="M14 7C14 12.0163 8.88097 15.0348 7.39804 15.804C7.14517 15.9351 6.85483 15.9351 6.60196 15.804C5.11903 15.0348 0 12.0163 0 7C0 3.13401 3.13401 0 7 0C10.866 0 14 3.13401 14 7Z" fill="#292D32"/>
<path id="Ellipse 6" d="M14 7C14 12.0163 8.88097 15.0348 7.39804 15.804C7.14517 15.9351 6.85483 15.9351 6.60196 15.804C5.11903 15.0348 0 12.0163 0 7C0 3.13401 3.13401 0 7 0C10.866 0 14 3.13401 14 7Z" fill="#292D32"/>
<circle id="Ellipse 5" cx="7" cy="7" r="3" fill="white"/>
</g>
</svg>
