<svg width="24" height="24" viewBox="0 0 24 24" fill="none" xmlns="http://www.w3.org/2000/svg">
<g id="Export_fill">
<path id="Vector" d="M9 12H7V14H9V12ZM13 12H11V14H13V12ZM17 12H15V14H17V12ZM19 5H18V3H16V5H8V3H6V5H5C3.89 5 3 5.9 3 7V21C3 21.5304 3.21071 22.0391 3.58579 22.4142C3.96086 22.7893 4.46957 23 5 23H19C19.5304 23 20.0391 22.7893 20.4142 22.4142C20.7893 22.0391 21 21.5304 21 21V7C21 6.46957 20.7893 5.96086 20.4142 5.58579C20.0391 5.21071 19.5304 5 19 5ZM19 21H5V10H19V21Z" fill="black"/>
</g>
</svg>
