<svg width="24" height="21" viewBox="0 0 24 21" fill="none" xmlns="http://www.w3.org/2000/svg">
<g id="Like">
<path id="Shape" fill-rule="evenodd" clip-rule="evenodd" d="M11.8725 2.65902L11.2175 1.89341C8.58142 -0.742626 4.37761 -0.562994 1.74157 2.07305C-0.894471 4.70908 -0.387159 9.80541 2.24888 12.4415C3.31874 13.5113 4.92092 14.9926 7.05542 16.8854L8.85115 18.4651L10.8681 20.2159C11.4234 20.6952 12.2439 20.7025 12.8077 20.2332L14.4416 18.8633C17.3029 16.4452 19.4262 14.5405 20.8115 13.1494L21.171 12.7827L21.4939 12.4415C23.9489 9.79404 24.5798 4.64778 22.005 2.07305L21.8185 1.89341C19.1711 -0.561568 15.179 -0.681323 12.6042 1.89341L11.8725 2.65902ZM2.80223 3.13371C4.88666 1.04928 8.11137 0.951553 10.118 2.91573L11.8111 4.89439L13.6886 2.92978C15.6145 1.00446 18.6838 1.03229 20.7986 2.99329L20.9645 3.15348C22.7839 4.97328 22.4744 9.17802 20.394 11.4215L20.0815 11.7516L19.7348 12.1051C18.5864 13.2576 16.8845 14.8017 14.6405 16.7247L13.4734 17.7177L11.8481 19.0803L9.83442 17.3324L8.39319 16.0664C6.36239 14.2715 4.79575 12.8359 3.69885 11.7652L3.30954 11.3808C1.138 9.20925 0.866398 5.06954 2.80223 3.13371Z" fill="#262626"/>
</g>
</svg>
