<svg width="28" height="18" viewBox="0 0 28 18" fill="none" xmlns="http://www.w3.org/2000/svg">
<path d="M25.6667 0H10.5C9.21667 0 8.16667 1.24615 8.16667 2.76923V15.2308C8.16667 16.7677 9.21667 18 10.5 18H25.6667C26.9617 18 28 16.7677 28 15.2308V2.76923C28 1.24615 26.9617 0 25.6667 0ZM25.6667 5.08154L18.0833 9.69231L10.5 5.08154V2.76923L18.0833 7.35231L25.6667 2.76923V5.08154ZM5.83333 15.2308C5.83333 15.4662 5.86833 15.6877 5.89167 15.9231H1.16667C0.522667 15.9231 0 15.3 0 14.5385C0 13.7769 0.522667 13.1538 1.16667 13.1538H5.83333V15.2308ZM3.5 2.07692H5.89167C5.86833 2.31231 5.83333 2.53385 5.83333 2.76923V4.84615H3.5C2.85833 4.84615 2.33333 4.22308 2.33333 3.46154C2.33333 2.7 2.85833 2.07692 3.5 2.07692ZM1.16667 9C1.16667 8.23846 1.69167 7.61539 2.33333 7.61539H5.83333V10.3846H2.33333C1.69167 10.3846 1.16667 9.76154 1.16667 9Z" fill="#BE262F"/>
</svg>
