<svg width="20" height="20" viewBox="0 0 20 20" fill="none" xmlns="http://www.w3.org/2000/svg">
<g id="email 1">
<path id="Vector" d="M9.99785 9.884L18.1285 5.44908C17.8699 4.59828 17.3454 3.85278 16.632 3.322C15.9185 2.79123 15.0537 2.50313 14.1645 2.5H5.83119C4.94196 2.50313 4.07716 2.79123 3.36372 3.322C2.65028 3.85278 2.12577 4.59828 1.86719 5.44908L9.99785 9.884Z" fill="white"/>
<path id="Vector_2" d="M10.3966 11.566C10.2741 11.6328 10.1369 11.6678 9.9974 11.6678C9.85793 11.6678 9.72069 11.6328 9.59823 11.566L1.66406 7.23828V13.3344C1.66536 14.4391 2.10477 15.4982 2.88589 16.2793C3.66701 17.0604 4.72606 17.4998 5.83073 17.5011H14.1641C15.2687 17.4998 16.3278 17.0604 17.1089 16.2793C17.89 15.4982 18.3294 14.4391 18.3307 13.3344V7.23828L10.3966 11.566Z" fill="white"/>
</g>
</svg>
