<svg width="29" height="29" viewBox="0 0 29 29" fill="none" xmlns="http://www.w3.org/2000/svg">
<path id="Vector" d="M29 1.45L11.6 3.4945V5.8H29V7.25H11.6V14.5H29C29 17.1245 28.1735 19.517 26.564 21.6775C24.9545 23.838 22.8665 25.4185 20.3 26.4625V29H8.7V26.4625C6.148 25.4185 4.0455 23.8235 2.436 21.6775C0.8265 19.5315 0 17.1245 0 14.5H4.35V2.9L29 0V1.45ZM5.8 4.176V5.8H7.25V4.031L5.8 4.176ZM5.8 7.25V14.5H7.25V7.25H5.8ZM10.15 14.5V7.25H8.7V14.5H10.15ZM10.15 5.8V3.6975L8.7 3.828V5.8H10.15Z" fill="#11282D"/>
</svg>
