<svg width="27" height="26" viewBox="0 0 27 26" fill="none" xmlns="http://www.w3.org/2000/svg">
<g id="Message">
<path id="Message_2" fill-rule="evenodd" clip-rule="evenodd" d="M20.1677 0C21.978 0 23.7195 0.765556 25.0006 2.13922C26.2831 3.51 27 5.35889 27 7.29444V18.7056C27 22.7356 23.9355 26 20.1677 26H6.831C3.06315 26 0 22.7356 0 18.7056V7.29444C0 3.26444 3.04965 0 6.831 0H20.1677ZM22.3077 9.44601L22.4157 9.33046C22.7383 8.91157 22.7383 8.3049 22.4008 7.88601C22.2132 7.67079 21.9553 7.53935 21.6867 7.51046C21.4032 7.49457 21.1332 7.59713 20.9293 7.79935L14.8422 12.9993C14.0592 13.6941 12.9373 13.6941 12.1422 12.9993L6.06719 7.79935C5.64734 7.46713 5.06684 7.51046 4.71719 7.90046C4.35269 8.29046 4.31219 8.91157 4.62134 9.3449L4.79819 9.53268L10.9407 14.6605C11.6967 15.296 12.6133 15.6427 13.5732 15.6427C14.5303 15.6427 15.4632 15.296 16.2178 14.6605L22.3077 9.44601Z" fill="black"/>
</g>
</svg>
