<svg width="38" height="8" viewBox="0 0 38 8" fill="none" xmlns="http://www.w3.org/2000/svg">
<g id="More Icon">
<path id="Shape" fill-rule="evenodd" clip-rule="evenodd" d="M4 0C6.20914 0 8 1.79086 8 4C8 6.20914 6.20914 8 4 8C1.79086 8 0 6.20914 0 4C0 1.79086 1.79086 0 4 0ZM18.6667 0C20.8758 0 22.6667 1.79086 22.6667 4C22.6667 6.20914 20.8758 8 18.6667 8C16.4575 8 14.6667 6.20914 14.6667 4C14.6667 1.79086 16.4575 0 18.6667 0ZM33.3333 0C35.5425 0 37.3333 1.79086 37.3333 4C37.3333 6.20914 35.5425 8 33.3333 8C31.1242 8 29.3333 6.20914 29.3333 4C29.3333 1.79086 31.1242 0 33.3333 0Z" fill="#262626"/>
</g>
</svg>
