<svg width="17" height="17" viewBox="0 0 17 17" fill="none" xmlns="http://www.w3.org/2000/svg">
<path id="Vector" d="M16.5655 10.5041L11.2974 15.7706C11.0474 16.0189 10.7093 16.1582 10.3569 16.1582C10.0046 16.1582 9.66654 16.0189 9.4165 15.7706L1.87856 8.23327C1.31622 7.60645 0.989097 6.80377 0.953125 5.96246L1.00474 1.54446C1.01122 1.18955 1.15527 0.851035 1.40651 0.600264C1.65774 0.349492 1.99655 0.206062 2.35148 0.200211L6.75662 0.158203C7.59801 0.196118 8.40037 0.52391 9.0276 1.08597L16.5655 8.62335C16.8138 8.87336 16.9531 9.21139 16.9531 9.56372C16.9531 9.91604 16.8138 10.2541 16.5655 10.5041ZM4.54325 2.83829C4.54325 2.65029 4.48749 2.4665 4.38304 2.31018C4.27858 2.15386 4.13011 2.03202 3.9564 1.96008C3.78269 1.88813 3.59155 1.8693 3.40714 1.90598C3.22274 1.94266 3.05335 2.03319 2.9204 2.16613C2.78745 2.29907 2.69691 2.46845 2.66023 2.65284C2.62354 2.83724 2.64237 3.02837 2.71432 3.20206C2.78627 3.37575 2.90812 3.52421 3.06445 3.62866C3.22079 3.73311 3.40458 3.78886 3.5926 3.78886C3.84473 3.78886 4.08653 3.68871 4.26481 3.51045C4.44309 3.33218 4.54325 3.0904 4.54325 2.83829ZM12.4581 11.6575C12.5199 11.5957 12.569 11.5224 12.6025 11.4417C12.6359 11.3609 12.6532 11.2744 12.6532 11.187C12.6532 11.0996 12.6359 11.0131 12.6025 10.9324C12.569 10.8516 12.5199 10.7783 12.4581 10.7165L11.9768 10.2352C12.1753 9.93098 12.3176 9.59357 12.3969 9.23906C12.4815 8.92292 12.482 8.59016 12.3984 8.27375C12.3149 7.95733 12.1501 7.66825 11.9203 7.43513C11.5935 7.10964 11.1599 6.91351 10.6996 6.88303C10.3959 6.86343 10.0911 6.89798 9.7994 6.98505H9.797C9.54715 7.06375 9.30897 7.17557 9.08882 7.31751H9.08522C8.89534 7.44139 8.71912 7.58501 8.55948 7.74599C8.46337 7.84248 8.35938 7.9308 8.2486 8.01003C8.12747 8.09668 7.99446 8.1654 7.8537 8.21407H7.8513C7.72063 8.25695 7.58253 8.27247 7.44559 8.25968H7.44319C7.30297 8.24843 7.17042 8.19103 7.0663 8.09645C6.99011 8.01052 6.93817 7.90587 6.91581 7.79323C6.89345 7.6806 6.90147 7.56404 6.93906 7.45553C7.02309 7.13223 7.19315 6.83775 7.43119 6.60338C7.5173 6.5295 7.60968 6.46323 7.70726 6.40534L7.74327 6.38254C7.86555 6.30774 7.99503 6.24542 8.12977 6.1965C8.25454 6.1497 8.38661 6.12532 8.51987 6.12449C8.69623 6.12449 8.86537 6.05444 8.99008 5.92974C9.11478 5.80504 9.18484 5.63592 9.18484 5.45957C9.18484 5.28322 9.11478 5.1141 8.99008 4.9894C8.86537 4.8647 8.69623 4.79465 8.51987 4.79465C8.22585 4.79582 7.93321 4.84947 7.65805 4.95308C7.43616 5.03484 7.22337 5.13942 7.02309 5.26513L7.01108 5.27233L6.53336 4.79225C6.47149 4.73046 6.39806 4.68147 6.31725 4.64806C6.23645 4.61465 6.14985 4.59749 6.06242 4.59754C5.97498 4.5976 5.8884 4.61487 5.80764 4.64838C5.72688 4.6819 5.65351 4.73098 5.59172 4.79285C5.52993 4.85471 5.48093 4.92814 5.44752 5.00894C5.41411 5.08974 5.39694 5.17632 5.397 5.26376C5.39705 5.35119 5.41433 5.43776 5.44784 5.51851C5.48136 5.59927 5.53045 5.67263 5.59232 5.73442L6.05804 6.1989C5.86392 6.49334 5.72295 6.81954 5.64153 7.16268C5.55461 7.49032 5.55357 7.83482 5.63851 8.16298C5.72344 8.49114 5.89149 8.79188 6.12646 9.03622C6.44538 9.34851 6.86194 9.54173 7.30636 9.58352C7.63237 9.61694 7.96177 9.58053 8.27261 9.4767C8.53985 9.38686 8.79227 9.25783 9.0216 9.09383C9.19187 8.97171 9.35166 8.83562 9.49932 8.68696C9.59269 8.59318 9.69569 8.5095 9.8066 8.43731C9.92633 8.36068 10.0554 8.29977 10.1907 8.25608C10.3263 8.21699 10.4676 8.20156 10.6084 8.21047C10.7477 8.21997 10.8789 8.27917 10.9781 8.3773C11.0381 8.43611 11.1762 8.57534 11.0945 8.96301C11.0123 9.29445 10.8408 9.59705 10.5988 9.83797C10.4932 9.93352 10.3809 10.0214 10.2627 10.1008C10.1469 10.1757 10.0238 10.2388 9.89542 10.2892C9.77321 10.3363 9.64155 10.3536 9.51133 10.3397C9.42416 10.3334 9.3366 10.3443 9.25366 10.3718C9.17071 10.3993 9.094 10.4429 9.02791 10.5001C8.96181 10.5573 8.90763 10.6269 8.86844 10.705C8.82926 10.7831 8.80585 10.8682 8.79954 10.9554C8.79324 11.0425 8.80416 11.1301 8.8317 11.213C8.85923 11.296 8.90283 11.3727 8.96001 11.4388C9.01719 11.5048 9.08682 11.559 9.16494 11.5982C9.24306 11.6374 9.32813 11.6608 9.4153 11.6671C9.47772 11.6719 9.53893 11.6731 9.59775 11.6731C9.87992 11.6761 10.1597 11.6214 10.42 11.5123C10.6338 11.4264 10.8379 11.3177 11.0285 11.1882L11.0405 11.1798L11.517 11.6575C11.6419 11.7817 11.8108 11.8515 11.987 11.8515C12.1631 11.8515 12.332 11.7817 12.4569 11.6575H12.4581Z" fill="black"/>
</svg>
