<svg width="24" height="24" viewBox="0 0 24 24" fill="none" xmlns="http://www.w3.org/2000/svg">
<path id="Vector" d="M13.2 19.2L13.2 9.6L17.4 13.8L19.104 12.096L12 4.992L4.896 12.096L6.6 13.8L10.8 9.6L10.8 19.2L13.2 19.2ZM12 -1.04907e-06C13.5759 -9.11307e-07 15.1363 0.310388 16.5922 0.913444C18.0481 1.5165 19.371 2.40041 20.4853 3.51472C22.7357 5.76515 24 8.8174 24 12C24 15.1826 22.7357 18.2348 20.4853 20.4853C18.2348 22.7357 15.1826 24 12 24C10.4241 24 8.8637 23.6896 7.4078 23.0866C5.95189 22.4835 4.62902 21.5996 3.51472 20.4853C2.40041 19.371 1.5165 18.0481 0.913445 16.5922C0.310389 15.1363 9.11307e-07 13.5759 1.04907e-06 12C1.3273e-06 8.8174 1.26428 5.76515 3.51472 3.51472C5.76516 1.26428 8.8174 -1.3273e-06 12 -1.04907e-06Z" fill="black"/>
</svg>
