<svg width="24" height="22" viewBox="0 0 24 22" fill="none" xmlns="http://www.w3.org/2000/svg">
<path d="M11.2175 2.39341L11.8725 3.15902L12.6042 2.39341C15.179 -0.181323 19.1711 -0.061568 21.8185 2.39341L22.005 2.57305C24.5798 5.14778 23.9489 10.294 21.4939 12.9415L21.171 13.2827L20.8115 13.6494C19.4262 15.0405 17.3029 16.9452 14.4416 19.3633L12.8077 20.7332C12.2439 21.2025 11.4234 21.1952 10.8681 20.7159L8.85115 18.9651L7.05542 17.3854C4.92092 15.4926 3.31874 14.0113 2.24888 12.9415C-0.387159 10.3054 -0.894471 5.20908 1.74157 2.57305C4.37761 -0.0629938 8.58142 -0.242626 11.2175 2.39341Z" fill="#CE1616"/>
</svg>
