<svg width="24" height="24" viewBox="0 0 24 24" fill="none" xmlns="http://www.w3.org/2000/svg">
<path id="Vector" d="M12 24C18.553 24 24.0001 18.553 24.0001 12C24.0001 5.43529 18.5412 0 11.9883 0C5.4235 0 0 5.43529 0 12C0 18.553 5.43529 24 12 24ZM6.82352 17.3059C5.5647 17.3059 4.92942 16.6824 4.92942 15.4588V9.17647C4.92942 7.94114 5.5647 7.31765 6.82352 7.31765H8.17646C8.64705 7.31765 8.7882 7.21174 9.0588 6.92938L9.54114 6.38822C9.84709 6.05878 10.1529 5.88234 10.7647 5.88234H13.1647C13.7765 5.88234 14.0823 6.05878 14.3765 6.38822L14.8588 6.92938C15.1294 7.23528 15.2706 7.31765 15.7412 7.31765H17.1529C18.3883 7.31765 19.0353 7.94114 19.0353 9.17647V15.4588C19.0353 16.6824 18.3883 17.3059 17.1529 17.3059H6.82352ZM11.9176 15.6353C13.8706 15.6353 15.4353 14.1059 15.4353 12.0941C15.4353 10.1412 13.8706 8.57647 11.9176 8.57647C9.96469 8.57647 8.37649 10.1412 8.37649 12.0941C8.37649 14.0706 9.96469 15.6353 11.9176 15.6353ZM16.5412 10.5294C16.9765 10.5294 17.3412 10.1765 17.3294 9.72943C17.3294 9.28238 16.9765 8.9294 16.5412 8.9294C16.1059 8.9294 15.7412 9.28238 15.7412 9.72943C15.7412 10.1765 16.1059 10.5294 16.5412 10.5294ZM11.9176 14.6118C10.5294 14.6118 9.39999 13.4941 9.39999 12.0941C9.39999 10.7059 10.5294 9.58822 11.9176 9.58822C13.2941 9.58822 14.4235 10.7059 14.4235 12.0941C14.4235 13.4941 13.2941 14.6118 11.9176 14.6118Z" fill="black"/>
</svg>
