<svg width="21" height="19" viewBox="0 0 21 19" fill="none" xmlns="http://www.w3.org/2000/svg">
<path d="M10.9434 4.97162L2.94336 4.97162C2.41293 4.97162 1.90422 5.19473 1.52915 5.59187C1.15407 5.989 0.943359 6.52763 0.943359 7.08927L0.943359 11.3246C0.943359 11.8862 1.15407 12.4248 1.52915 12.822C1.90422 13.2191 2.41293 13.4422 2.94336 13.4422H3.94336V17.6775C3.94336 17.9583 4.04872 18.2276 4.23625 18.4262C4.42379 18.6248 4.67814 18.7363 4.94336 18.7363H6.94336C7.20858 18.7363 7.46293 18.6248 7.65047 18.4262C7.838 18.2276 7.94336 17.9583 7.94336 17.6775V13.4422H10.9434L15.9434 17.6775L15.9434 0.736328L10.9434 4.97162ZM20.4434 9.20692C20.4434 11.0175 19.4834 12.6587 17.9434 13.4422V4.97162C19.4734 5.76574 20.4434 7.40692 20.4434 9.20692Z" fill="#454038"/>
</svg>
