<svg width="18" height="18" viewBox="0 0 18 18" fill="none" xmlns="http://www.w3.org/2000/svg">
<path id="photo" d="M11.7 3.6C13.1379 3.6 14.3133 4.72403 14.3954 6.14135L14.4 6.3V15.3C14.4 16.7379 13.276 17.9133 11.8586 17.9954L11.7 18H2.7C1.26209 18 0.0867051 16.876 0.00458336 15.4586L0 15.3V6.3C0 4.86209 1.12403 3.68671 2.54135 3.60458L2.7 3.6H11.7ZM12.6 11.4858L9.6914 14.9762C9.37679 15.3537 8.82424 15.4047 8.44729 15.1104L8.3636 15.0364L6.3 12.9735L3.0726 16.2H11.7C12.1616 16.2 12.542 15.8526 12.5939 15.405L12.6 15.3V11.4858ZM15.3 0C16.7379 0 17.9133 1.12403 17.9954 2.54135L18 2.7V14.4C18 14.8971 17.5971 15.3 17.1 15.3C16.6384 15.3 16.258 14.9526 16.2061 14.505L16.2 14.4V2.7C16.2 2.23845 15.8526 1.85804 15.405 1.80605L15.3 1.8H3.6C3.10294 1.8 2.7 1.39706 2.7 0.9C2.7 0.438448 3.04744 0.0580435 3.49504 0.00605493L3.6 0H15.3ZM11.7 5.4H2.7C2.23845 5.4 1.85804 5.74744 1.80605 6.19504L1.8 6.3V14.9256L5.6636 11.0636C5.98804 10.7392 6.49855 10.7142 6.85161 10.9887L6.9364 11.0636L8.9388 13.0653L12.6 8.6724V6.3C12.6 5.83845 12.2526 5.45804 11.805 5.40605L11.7 5.4ZM4.05 6.3C4.79558 6.3 5.4 6.90442 5.4 7.65C5.4 8.39558 4.79558 9 4.05 9C3.30442 9 2.7 8.39558 2.7 7.65C2.7 6.90442 3.30442 6.3 4.05 6.3Z" fill="#878787"/>
</svg>
