<svg width="60" height="60" viewBox="0 0 60 60" fill="none" xmlns="http://www.w3.org/2000/svg">
<mask id="path-1-outside-1_3942_27372" maskUnits="userSpaceOnUse" x="1" y="24.1973" width="54" height="24" fill="black">
<rect fill="white" x="1" y="24.1973" width="54" height="24"/>
<path d="M36 27.1973H52V44.3401H4V38.6258V32.9116V27.1973"/>
</mask>
<path d="M36 27.1973H52V44.3401H4V38.6258V32.9116V27.1973" fill="#292D32"/>
<path d="M36 24.1973C34.3431 24.1973 33 25.5404 33 27.1973C33 28.8541 34.3431 30.1973 36 30.1973V24.1973ZM52 27.1973H55C55 25.5404 53.6569 24.1973 52 24.1973V27.1973ZM52 44.3401V47.3401C53.6569 47.3401 55 45.997 55 44.3401H52ZM4 44.3401H1C1 45.997 2.34315 47.3401 4 47.3401L4 44.3401ZM7 27.1973C7 25.5404 5.65685 24.1973 4 24.1973C2.34315 24.1973 1 25.5404 1 27.1973H7ZM36 30.1973H52V24.1973H36V30.1973ZM49 27.1973V44.3401H55V27.1973H49ZM52 41.3401H4V47.3401H52V41.3401ZM7 32.9116V27.1973H1V32.9116H7ZM7 44.3401V38.6258H1V44.3401H7ZM7 38.6258V32.9116H1V38.6258H7Z" fill="#292D32" mask="url(#path-1-outside-1_3942_27372)"/>
<path d="M2.65625 49.6309C2.65625 50.4593 3.32782 51.1309 4.15625 51.1309C4.98468 51.1309 5.65625 50.4593 5.65625 49.6309V41.0594C5.65625 40.231 4.98468 39.5594 4.15625 39.5594C3.32782 39.5594 2.65625 40.231 2.65625 41.0594V49.6309ZM54.0848 49.6309C54.0848 50.4593 54.7564 51.1309 55.5848 51.1309C56.4132 51.1309 57.0848 50.4593 57.0848 49.6309V9.63086C57.0848 8.80243 56.4132 8.13086 55.5848 8.13086C54.7564 8.13086 54.0848 8.80243 54.0848 9.63086V49.6309Z" stroke="#292D32" stroke-width="3" stroke-linecap="round" stroke-linejoin="round"/>
<path d="M38.2852 26.0527L3.99944 26.0527V20.0527C3.99944 19.5223 4.30046 19.0136 4.83628 18.6385C5.3721 18.2634 6.09883 18.0527 6.85659 18.0527L35.428 18.0527C36.1858 18.0527 36.9125 18.2634 37.4483 18.6385C37.9841 19.0136 38.2852 19.5223 38.2852 20.0527V26.0527Z" fill="white" stroke="#292D32" stroke-width="3" stroke-linecap="round" stroke-linejoin="round"/>
</svg>
