<svg width="61" height="60" viewBox="0 0 61 60" fill="none" xmlns="http://www.w3.org/2000/svg">
<path d="M8 22.5H53V50C53 50.663 52.7366 51.2989 52.2678 51.7678C51.7989 52.2366 51.163 52.5 50.5 52.5H10.5C9.83696 52.5 9.20107 52.2366 8.73223 51.7678C8.26339 51.2989 8 50.663 8 50V22.5Z" fill="#292D32"/>
<path d="M8 22.5V50C8 50.663 8.26339 51.2989 8.73223 51.7678C9.20107 52.2366 9.83696 52.5 10.5 52.5H50.5C51.163 52.5 51.7989 52.2366 52.2678 51.7678C52.7366 51.2989 53 50.663 53 50V22.5M8 22.5H53M8 22.5V12.5C8 11.837 8.26339 11.2011 8.73223 10.7322C9.20107 10.2634 9.83696 10 10.5 10H50.5C51.163 10 51.7989 10.2634 52.2678 10.7322C52.7366 11.2011 53 11.837 53 12.5V22.5M40.5 7.5V15M20.5 7.5V15M30.5 37.5V30" stroke="#292D32" stroke-width="1.74" stroke-linecap="round" stroke-linejoin="round"/>
<path d="M30.375 45H30.625" stroke="white" stroke-width="6.25" stroke-linecap="round" stroke-linejoin="round"/>
</svg>
