<svg height="512pt" viewBox="0 -20 512.00033 512" width="512pt" xmlns="http://www.w3.org/2000/svg"><path d="m507.578125 363.675781c-4.394531-7.613281-11.492187-13.058593-19.980469-15.332031l-43.414062-11.632812c.039062-2.519532.035156-5.035157-.015625-7.550782 7.460937-1.601562 14.636719-4.328125 21.410156-8.152344 17.632813-9.964843 30.328125-26.199218 35.753906-45.714843 3.824219-13.769531 3.695313-28.257813-.367187-41.90625-5.492188-13.617188-15.4375-18.996094-29.839844-16.136719-12.671875 3.773438-19.914062 17.15625-16.136719 29.835938 1.484375 4.988281 1.527344 10.300781.121094 15.363281-1.992187 7.167969-6.65625 13.132812-13.132813 16.792969-4.140624 2.339843-8.722656 3.554687-13.382812 3.601562-14.878906-20.453125-38.980469-33.785156-66.152344-33.785156h-6.699218c-4.140626 0-7.496094 3.355468-7.496094 7.496094 0 4.136718 3.355468 7.496093 7.496094 7.496093h6.699218c36.820313 0 66.777344 29.953125 66.777344 66.773438v4.527343c0 12.695313-3.492188 24.789063-10.132812 35.367188l-18.757813-11.695312c-15.300781-9.527344-35.582031-4.882813-45.207031 10.355468-4.71875 7.464844-6.230469 16.316406-4.257813 24.921875.632813 2.757813 1.601563 5.378907 2.867188 7.828125h-119.0625c4.992187-9.976562 4.804687-22.25-1.574219-32.347656-4.695312-7.429688-12.003906-12.585938-20.578125-14.519531-8.566406-1.933594-17.386719-.414063-24.804687 4.273437l-17.289063 10.886719c-4.746094-7.652344-7.683594-16.121094-9.195313-24.96875-1.640624-9.605469-1.304687-20.816406.914063-29.398437 0 0 4.210937-.9375 6.078125-2.183594l84.398438-56.421875 4.402343 4.40625c1.40625 1.402343 3.3125 2.195312 5.300781 2.195312h57.734376c4.140624 0 7.496093-3.355469 7.496093-7.496093 0-4.140626-3.355469-7.496094-7.496093-7.496094h-54.628907l-13.304687-13.304688 85.050781-55.378906c2.242187 11.339844 12.257813 19.917969 24.246094 19.917969h83.378906c13.628906 0 24.714844-11.089844 24.714844-24.71875l.246093-81.527344 38.347657-24.96875c3.472656-2.257813 4.453125-6.902344 2.195312-10.371094-2.257812-3.472656-6.90625-4.449219-10.371093-2.191406l-14.167969 9.222656 18.40625-45.847656c1.792969-4.472656 1.253906-9.527344-1.445313-13.515625-2.699218-3.992188-7.1875-6.375-12.003906-6.375h-90.78125c-5.9375 0-11.371094 3.722656-13.515625 9.261719l-12.941406 33.429687c-1.433594 3.703125-1.304688 7.722656.367187 11.328125.09375.203125.207032.394531.3125.59375l-6.1875 15.976563c-.03125.082031-.097656.164062-.125.25-15.507812 7.730468-26.269531 21.78125-29.847656 38.195312l-36.082031 20.832032c-4.664063 2.695312-8.003907 7.042968-9.398438 12.246093-1.394531 5.207031-.679687 10.640625 2.015625 15.308594 4.496094 7.789063 11.757813 13.363281 20.445313 15.691406 1.496093.398438 3 .691407 4.511719.882813l-78.207032 50.921875-14.425781-14.421875 4.851563-3.261719c5.964843-4.007813 9.234374-10.683594 8.746093-17.851563-.488281-7.171874-4.632812-13.339843-11.089843-16.5l-37.726563-18.480468c-7.234375-3.546875-15.332031-3.792969-22.566406-.878906-24.71875-18.882813-59.925781-16.84375-82.324219 5.554687-8.625 8.625-14.414062 19.265625-16.9375 31.035156l-56.363281 8.527344c-4.296875.648437-8.175781 3.070313-10.648438 6.644531-2.46875 3.574219-3.363281 8.058594-2.453125 12.304688l3.429688 16.019531c.003906.015625.007812.03125.011718.042969l13.839844 64.636718c2.835938 13.230469 15.519532 21.957032 28.902344 19.871094.390625-.0625.777344-.15625 1.15625-.277344l82.425781-26.753906 18.238281 18.238282c-1.902343 6.996093-2.867187 14.191406-2.867187 21.460937v4.019531l-50.386719 13.5c-17.523437 4.695313-27.960937 22.773438-23.265625 40.296875 2.273438 8.488281 7.71875 15.585938 15.332031 19.980469 4.957032 2.859375 10.441407 4.34375 16.011719 4.410156-5.792969 4.640625-9.820312 11.050782-11.476562 18.398438-1.9375 8.570312-.414063 17.386718 4.28125 24.816406h-.003907c4.699219 7.429688 12.003907 12.585938 20.578126 14.519531 2.425781.546875 4.875.820313 7.304687.820313 6.148437 0 12.183594-1.734375 17.5-5.09375l78.882813-49.675782 148.496093.058594 79.585938 49.609375c7.984375 4.761719 16.257812 6.1875 24.816406 4.28125 8.574219-1.933593 15.878906-7.089843 20.574219-14.519531 4.695312-7.429688 6.214844-16.246094 4.28125-24.816406-1.933594-8.574219-7.09375-15.882813-14.523438-20.578125-.011718-.007813-.023437-.015625-.035156-.023438l-51.628906-32.183593c5.203125-8.285157 8.828125-17.332032 10.757812-26.847657l41.152344 11.027344c9.539062 2.554687 15.222656 12.398437 12.667969 21.9375-.242188.894531-.550781 1.769531-.914063 2.605469-1.667968 3.789062.054688 8.210937 3.84375 9.878906.980469.429688 2.003906.632812 3.011719.632812 2.882813 0 5.632813-1.671874 6.863281-4.480468.675782-1.527344 1.238282-3.128906 1.671875-4.757813 2.277344-8.492187 1.109375-17.359375-3.285156-24.96875zm-107.300781-348.6875h89.699218l-23.984374 59.757813-78.34375-27.125zm-48.585938 106.160157c0-15.734376 8.753906-29.871094 22.84375-36.894532 3.507813-1.75 6.152344-4.710937 7.460938-8.355468l4.902344-12.671876 68.902343 23.855469c-.066406.269531-.128906.542969-.1875.8125-.011719.050781-.027343.101563-.035156.152344-.699219 3.128906-1.058594 6.328125-1.058594 9.554687v77.972657c0 5.359375-4.359375 9.722656-9.722656 9.722656h-4.261719v-18.328125c0-4.136719-3.355468-7.496094-7.496094-7.496094-4.140624 0-7.496093 3.359375-7.496093 7.496094v18.328125h-15.785157v-18.429687c0-4.140626-3.359374-7.496094-7.496093-7.496094-4.140625 0-7.496094 3.355468-7.496094 7.496094v18.429687h-15.789063v-18.53125c0-4.140625-3.355468-7.496094-7.496093-7.496094s-7.496094 3.355469-7.496094 7.496094v18.53125h-2.570313c-5.363281 0-9.726562-4.363281-9.726562-9.722656v-54.425781zm-32.828125 37.480468c-4.820312-1.289062-8.847656-4.382812-11.34375-8.703125-.691406-1.199219-.875-2.59375-.519531-3.929687.359375-1.339844 1.214844-2.453125 2.414062-3.148438l27.285157-15.75v27.554688l-3.660157 2.113281c-4.320312 2.492187-9.359374 3.15625-14.175781 1.863281zm-146.679687 10.113282c4.207031-2.621094 8.496094-2.914063 12.867187-.878907l37.722657 18.480469c2.289062 1.121094 2.671874 3.210938 2.730468 4.058594.054688.84375-.039062 2.96875-2.152344 4.390625 0 0-12.375 8.316406-12.40625 8.335937l-22.460937 15.09375c-3.867187 2.601563-8.675781 2.929688-12.863281.878906-4.1875-2.050781-6.875-6.050781-7.191406-10.703124l-1.917969-28.078126c-.316407-4.648437 1.804687-8.976562 5.671875-11.578124zm-154.996094 55.878906-2.179688-10.171875c-.050781-.230469-.007812-.445313.128907-.640625.132812-.195313.320312-.308594.554687-.34375l15.523438-2.351563v10.628907c0 1.589843-1.292969 2.878906-2.882813 2.878906zm124.269531 56.648437-3.992187-3.988281c-1.992188-1.996094-4.933594-2.699219-7.613282-1.832031l-86.148437 27.964843c-5.339844.585938-10.28125-2.976562-11.414063-8.265624l-11.894531-55.535157h7.9375c9.855469 0 17.875-8.019531 17.875-17.875v-12.894531l31.21875-4.722656c3.328125-.503906 5.910157-3.164063 6.320313-6.503906 1.296875-10.675782 6.003906-20.335938 13.605468-27.941407 16.082032-16.078125 40.824219-18.367187 59.367188-6.519531-3.746094 5.167969-5.617188 11.519531-5.164062 18.1875l1.917968 28.074219c.6875 10.058593 6.5 18.710937 15.554688 23.144531 3.941406 1.933594 8.136718 2.886719 12.308594 2.886719 5.414062 0 10.789062-1.609375 15.511718-4.785157l17.335938-11.648437 27.625 27.625-80.898438 54.082031-8.644531-8.644531 55.855469-37.339844c3.441406-2.300781 4.367187-6.957031 2.066406-10.398437s-6.957031-4.363282-10.398438-2.066406zm-46.796875 114.371094c-4.144531-2.394531-7.109375-6.253906-8.347656-10.878906-1.238281-4.621094-.601562-9.449219 1.789062-13.589844 2.394532-4.144531 6.253907-7.109375 10.878907-8.347656l47.816406-12.8125c1.8125 10.074219 5.5 19.65625 10.941406 28.398437l-15.917969 10.023438-33.570312 8.996094c-4.621094 1.238281-9.449219.601562-13.589844-1.789063zm120.207032 6.84375c-.304688.164063-.59375.351563-.871094.550781l-80.632813 50.777344c-8.351562 5.277344-19.433593 2.773438-24.710937-5.574219-2.554688-4.046875-3.382813-8.84375-2.328125-13.511719 1.050781-4.664062 3.859375-8.644531 7.894531-11.195312l34.605469-21.792969c.023437-.011719.050781-.027343.074219-.042969l46.8125-29.480468c2.898437-1.832032 6.183593-2.777344 9.53125-2.777344 17.167968 0 24.765624 23.464844 9.625 33.046875zm260.617187 21.054687c4.035156 2.554688 6.835937 6.527344 7.886719 11.1875 1.054687 4.667969.226562 9.464844-2.332032 13.511719-2.554687 4.042969-6.53125 6.851563-11.199218 7.90625-4.667969 1.050781-9.464844.226563-13.546875-2.355469l-82.824219-51.628906c-4.082031-2.542968-6.917969-6.519531-7.992188-11.207031-1.074218-4.683594-.25-9.503906 2.316407-13.566406 3.398437-5.378907 9.234375-8.332031 15.1875-8.332031 3.226562 0 6.492187.871093 9.417969 2.691406l23.878906 14.886718c.078125.0625.148437.132813.226562.191407.46875.367187.976563.644531 1.5.882812zm-32.988281-109.382812c-1.246094-5.992188-3.164063-11.738281-5.648438-17.175781 4.34375-.890625 8.558594-2.457031 12.503906-4.6875 9.964844-5.628907 17.140626-14.804688 20.203126-25.828125 2.160156-7.785156 2.09375-15.964844-.199219-23.660156-1.417969-4.753907 1.296875-9.773438 6.050781-11.191407 2.304688-.683593 4.734375-.429687 6.847656.710938 2.113282 1.144531 3.65625 3.042969 4.34375 5.34375 3.257813 10.941406 3.359375 22.566406.289063 33.613281-4.351563 15.65625-14.539063 28.679688-28.683594 36.675781-4.992187 2.816407-10.253906 4.882813-15.707031 6.199219zm0 0"/><path d="m105.664062 216.101562c0 6.179688-5.007812 11.1875-11.1875 11.1875-6.175781 0-11.183593-5.007812-11.183593-11.1875 0-6.175781 5.007812-11.183593 11.183593-11.183593 6.179688 0 11.1875 5.007812 11.1875 11.183593zm0 0"/></svg>