<svg width="61" height="60" viewBox="0 0 61 60" fill="none" xmlns="http://www.w3.org/2000/svg">
<path d="M54 29V33C54 34.1046 53.0852 35 51.9565 35H50.9348L47.8695 51.2208C47.7546 52.2337 46.8797 53 45.8386 53H15.1614C14.1202 53 13.2454 52.2337 13.1305 51.2208L10.0652 35H9.04349C7.91491 35 7 34.1047 7 33V29C7 27.8954 7.91482 27 9.04349 27H10.0652C10.0652 22.5816 13.7248 18.9999 18.2392 18.9999H27.6393C28.5861 14.4355 32.7091 11 37.6522 11H40.7174C46.3604 11 50.9348 15.4771 50.9348 21V27H51.9565C53.0851 27 54 27.8954 54 29Z" fill="#292D32"/>
<path d="M54 29V33C54 34.1046 53.0852 35 51.9565 35H50.9348L50.5568 37H10.4432L10.0652 35H9.04349C7.91491 35 7 34.1046 7 33V29C7 27.8954 7.91482 27 9.04349 27H51.9565C53.0851 27 54 27.8954 54 29Z" fill="#292D32"/>
<path d="M34.75 23H23.2917C19.2646 23 16 19.866 16 16C16 11.0294 20.1973 7 25.375 7H32.6667C37.2691 7 41 10.5817 41 15V17C40.9999 20.3138 38.2017 23 34.75 23Z" fill="#292D32"/>
<path d="M54 29V33C54 34.1046 53.0852 35 51.9565 35H9.04349C7.91491 35 7 34.1046 7 33V29C7 27.8954 7.91482 27 9.04349 27H51.9565C53.0851 27 54 27.8954 54 29Z" fill="#292D32"/>
<path d="M37.4348 11H40.5653C46.3282 11 51 15.4773 51 21V27H27V21C27 15.4773 31.6719 11 37.4348 11Z" fill="#292D32"/>
<path d="M45 27C45 29.2092 43.1564 31 40.8823 31H31.6176C29.8239 31 28.2981 29.8859 27.7335 28.3313C27.4436 27.5329 26.6656 27 25.7939 27H10C10 22.5817 13.687 19 18.2353 19H36.7648C41.313 19.0001 45 22.5818 45 27Z" fill="#292D32"/>
<path d="M14.8316 35.8105H9.77894C8.24659 35.8105 7 34.5638 7 33.0316V28.9895C7 27.4572 8.24659 26.2105 9.77894 26.2105H10.0638C10.4494 21.6884 14.2534 18.1263 18.8737 18.1263H19.8843C20.3028 18.1263 20.6421 18.4655 20.6421 18.8842C20.6421 19.3028 20.3028 19.642 19.8843 19.642H18.8737C15.0899 19.642 11.9669 22.5256 11.5863 26.2104H34.0317C34.4504 26.2104 34.7896 26.5496 34.7896 26.9683C34.7896 27.387 34.4504 27.7262 34.0317 27.7262H28.7687C28.8235 27.8336 28.8716 27.9456 28.9125 28.0613C29.3748 29.3719 30.6199 30.2525 32.0106 30.2525H41.1054C42.9164 30.2525 44.3897 28.7792 44.3897 26.9682C44.3897 22.9284 41.1032 19.6419 37.0634 19.6419H28.1864C28.1764 19.6421 28.1667 19.6421 28.1567 19.6419H22.9159C22.4973 19.6419 22.1581 19.3027 22.1581 18.8841C22.1581 18.4654 22.4974 18.1262 22.9159 18.1262H27.5695C28.19 15.7733 29.5887 13.6918 31.5544 12.215C32.2278 11.7091 32.9591 11.2822 33.7284 10.9462C35.1015 10.3462 36.5635 10.0419 38.0739 10.0419H41.1055C47.0954 10.0419 51.9687 14.9152 51.9687 20.9051V23.9367C51.9687 24.3554 51.6295 24.6946 51.2108 24.6946C50.7921 24.6946 50.4529 24.3554 50.4529 23.9367V20.9051C50.4529 15.7509 46.2598 11.5578 41.1056 11.5578H38.074C36.7739 11.5578 35.516 11.8194 34.3353 12.3352C33.6737 12.6242 33.0446 12.9915 32.465 13.4268C30.8816 14.6166 29.7257 16.2614 29.1464 18.1261H37.0635C41.939 18.1261 45.9056 22.0927 45.9056 26.9682C45.9056 29.6149 43.7523 31.7682 41.1056 31.7682H32.0108C29.9787 31.7682 28.1592 30.4812 27.4832 28.5656C27.3061 28.0635 26.8281 27.7261 26.294 27.7261H9.77894C9.08238 27.7261 8.51575 28.2927 8.51575 28.9893V33.0314C8.51575 33.728 9.08238 34.2946 9.77894 34.2946H14.8316C15.2502 34.2946 15.5895 34.6338 15.5895 35.0525C15.5895 35.4712 15.2501 35.8105 14.8316 35.8105ZM16.9233 17.6212C16.9592 17.6212 16.9952 17.6186 17.0316 17.6135C17.4459 17.5541 17.7338 17.1701 17.6746 16.7558C17.6321 16.459 17.6106 16.1552 17.6106 15.8527C17.6106 11.2558 21.3505 7.51584 25.9474 7.51584H33.0212C34.7053 7.51584 36.2883 8.07131 37.5995 9.12216C37.9261 9.38391 38.403 9.33131 38.6649 9.00469C38.9267 8.67816 38.8741 8.20116 38.5474 7.93931C36.9872 6.68869 35.0245 6 33.0211 6H25.9473C20.5145 6 16.0948 10.4198 16.0948 15.8527C16.0948 16.2267 16.1215 16.6028 16.1741 16.9706C16.2281 17.3485 16.5523 17.6212 16.9233 17.6212ZM38.0737 52.4842H15.8297C15.1851 52.4842 14.6454 52.0013 14.5743 51.3607C14.5722 51.3425 14.5696 51.3245 14.5663 51.3065L12.0954 37.9463C12.0193 37.5348 11.6237 37.2626 11.2123 37.3389C10.8007 37.4151 10.5287 37.8104 10.6049 38.2221L13.0712 51.5573C13.2409 52.952 14.4216 54 15.8297 54H38.0736C38.4923 54 38.8315 53.6608 38.8315 53.2421C38.8315 52.8234 38.4923 52.4842 38.0737 52.4842ZM16.0948 44.1473C16.0948 44.566 16.4342 44.9052 16.8527 44.9052H21.7414L22.1638 48.2835C22.2117 48.6669 22.5382 48.9474 22.9149 48.9474C22.9462 48.9474 22.978 48.9454 23.0098 48.9414C23.4251 48.8895 23.7197 48.5107 23.6678 48.0953L23.2691 44.9052H30.2421V48.1895C30.2421 48.6082 30.5815 48.9473 31 48.9473C31.4187 48.9473 31.7579 48.6082 31.7579 48.1895V44.9052H37.0631C37.4818 44.9052 37.821 44.566 37.821 44.1473C37.821 43.7287 37.4818 43.3895 37.0631 43.3895H31.7579V40.1052C31.7579 39.6865 31.4187 39.3473 31 39.3473C30.5814 39.3473 30.2421 39.6865 30.2421 40.1052V43.3895H23.0796L22.6573 40.0112C22.6053 39.596 22.2263 39.3012 21.8113 39.3532C21.396 39.4051 21.1013 39.7839 21.1532 40.1992L21.552 43.3895H16.8527C16.4341 43.3895 16.0948 43.7287 16.0948 44.1473ZM40.1888 39.3532C39.7733 39.3011 39.3947 39.596 39.3427 40.0113L38.3322 48.0955C38.2803 48.5108 38.5749 48.8897 38.9902 48.9416C39.0222 48.9456 39.0539 48.9476 39.0852 48.9476C39.4618 48.9476 39.7883 48.6671 39.8363 48.2837L40.8468 40.1994C40.8987 39.7839 40.604 39.4051 40.1888 39.3532ZM45.1473 44.9052C45.566 44.9052 45.9052 44.566 45.9052 44.1473C45.9052 43.7287 45.566 43.3895 45.1473 43.3895H42.1157C41.6971 43.3895 41.3579 43.7287 41.3579 44.1473C41.3579 44.566 41.6971 44.9052 42.1157 44.9052H45.1473ZM52.2211 26.2105H48.1789C47.7603 26.2105 47.4211 26.5497 47.4211 26.9684C47.4211 27.3871 47.7603 27.7263 48.1789 27.7263H52.2211C52.9176 27.7263 53.4842 28.2929 53.4842 28.9895V33.0316C53.4842 33.7282 52.9176 34.2948 52.2211 34.2948H51.2238C51.2144 34.2946 51.2049 34.2946 51.1955 34.2948H17.8632C17.4446 34.2948 17.1053 34.634 17.1053 35.0527C17.1053 35.4713 17.4447 35.8105 17.8632 35.8105H50.2996L47.4337 51.3065C47.4303 51.3245 47.4276 51.3425 47.4258 51.3607C47.3546 52.0013 46.8149 52.4842 46.1702 52.4842H41.1053C40.6866 52.4842 40.3474 52.8234 40.3474 53.2421C40.3474 53.6608 40.6866 54 41.1053 54H46.1702C47.5786 54 48.7592 52.9519 48.9288 51.5573L51.8411 35.8105H52.2211C53.7533 35.8105 55 34.5638 55 33.0316V28.9895C55 27.4572 53.7533 26.2105 52.2211 26.2105Z" fill="#F6FDFF"/>
</svg>
