<svg width="60" height="61" viewBox="0 0 60 61" fill="none" xmlns="http://www.w3.org/2000/svg">
<path d="M19.8298 35.3854L19.801 35.3492L19.7684 35.3165L18.8272 34.3705C16.179 31.7089 14.835 28.1466 14.835 24.0811C14.835 16.0412 21.5118 9.2961 29.553 8.835H30C38.476 8.835 45.165 15.5518 45.165 24.0811C45.165 27.6531 43.8336 31.2365 41.6163 33.9248L40.2316 35.3165L40.1766 35.3718C39.2814 36.2713 38.5062 37.0503 37.98 37.9758C37.4194 38.9619 37.165 40.0603 37.165 41.5811V42.165H22.835V41.5811C22.835 40.0506 22.5767 39.0616 22.0062 38.1299C21.7364 37.6891 21.4078 37.2795 21.0518 36.8546C20.953 36.7366 20.8519 36.6174 20.7479 36.4946C20.468 36.1642 20.1666 35.8085 19.8298 35.3854Z" fill="#292D32" stroke="#292D32" stroke-width="1.67"/>
<path d="M25 52C25 52.6667 26 53 26.5 53H33.5C34.5 53 35 52.6667 35 52C35 51.3333 34 51 33.5 51H26.5C25.5 51 25 51.3333 25 52Z" fill="#292D32" stroke="#292D32" stroke-width="1.67"/>
<path d="M29.6957 14C24.913 14 21 18.3043 21 23.5652C21 24.5217 21.8696 25 22.3043 25C22.7391 25 23.6087 24.0435 23.6087 23.5652C23.6087 20.2174 26.2174 16.8696 29.6957 16.8696C30.5652 16.8696 31 15.913 31 15.4348C31 14.9565 30.5652 14 29.6957 14Z" fill="white"/>
<path d="M22 46C22 46.6667 22.9697 47 23.4545 47H36.5455C37.5152 47 38 46.6667 38 46C38 45.3333 37.0303 45 36.5455 45H23.4545C22.9697 45 22 45.3333 22 46Z" fill="#292D32" stroke="#292D32" stroke-width="1.2"/>
</svg>
