<svg width="61" height="60" viewBox="0 0 61 60" fill="none" xmlns="http://www.w3.org/2000/svg">
<path d="M18.5968 10.6074H44.1028C45.0448 10.6074 45.8128 11.3754 45.8128 12.3174C45.8128 13.2594 45.0448 14.0274 44.1028 14.0274H18.0928C17.1508 14.0274 16.3828 13.2594 16.3828 12.3174C16.3828 11.3754 17.1508 10.6074 18.0928 10.6074" fill="#292D32"/>
<path d="M18.5968 10.6074H44.1028C45.0448 10.6074 45.8128 11.3754 45.8128 12.3174C45.8128 13.2594 45.0448 14.0274 44.1028 14.0274H18.0928C17.1508 14.0274 16.3828 13.2594 16.3828 12.3174C16.3828 11.3754 17.1508 10.6074 18.0928 10.6074" stroke="#292D32" stroke-width="1.2" stroke-miterlimit="10"/>
<path d="M44.5108 46.6855H17.6848C16.9657 46.6855 16.3828 47.2685 16.3828 47.9876V48.8035C16.3828 49.5226 16.9657 50.1055 17.6848 50.1055H44.5108C45.2299 50.1055 45.8128 49.5226 45.8128 48.8035V47.9876C45.8128 47.2685 45.2299 46.6855 44.5108 46.6855Z" fill="#292D32" stroke="#292D32" stroke-width="1.2" stroke-miterlimit="10"/>
<path d="M44.2208 37.6673V46.6853H17.9648V14.0273H44.2208V37.0313" fill="#292D32"/>
<path d="M44.2208 37.6673V46.6853H17.9648V14.0273H44.2208V37.0313" stroke="#292D32" stroke-width="1.2" stroke-miterlimit="10"/>
<path d="M29.9412 18.0234H20.6172V29.0514H29.9412V18.0234Z" fill="white" stroke="#292D32" stroke-width="1.2" stroke-miterlimit="10"/>
<path d="M41.6795 18.0234H32.3555V29.0514H41.6795V18.0234Z" fill="white" stroke="#292D32" stroke-width="1.2" stroke-miterlimit="10"/>
<path d="M29.8396 31.6621H20.5156V42.6901H29.8396V31.6621Z" fill="white" stroke="#292D32" stroke-width="1.2" stroke-miterlimit="10"/>
<path d="M41.574 31.6621H32.25V42.6901H41.574V31.6621Z" fill="white" stroke="#292D32" stroke-width="1.2" stroke-miterlimit="10"/>
<path d="M39.8967 24.1866C37.3167 24.1866 37.0167 24.4866 37.0167 27.0666C37.0167 24.4866 36.7167 24.1866 34.1367 24.1866C36.7167 24.1866 37.0167 23.8866 37.0167 21.3066C37.0167 23.8866 37.3167 24.1866 39.8967 24.1866Z" fill="#292D32"/>
<path d="M26.2461 35.4531C24.3081 35.4531 24.0801 35.6811 24.0801 37.6191C24.0801 35.6811 23.8521 35.4531 21.9141 35.4531C23.8521 35.4531 24.0801 35.2251 24.0801 33.2871C24.0801 35.2251 24.3081 35.4531 26.2461 35.4531Z" fill="#292D32"/>
<path d="M28.611 39.5223C27.387 39.5223 27.243 39.6663 27.243 40.8903C27.243 39.6663 27.099 39.5223 25.875 39.5223C27.099 39.5223 27.243 39.3783 27.243 38.1543C27.243 39.3783 27.387 39.5223 28.611 39.5223Z" fill="#292D32"/>
<path d="M24.3486 20.0156L22.4766 22.0316" stroke="#231F20" stroke-width="1.2" stroke-miterlimit="10"/>
<path d="M28.1785 25.4512L26.3125 27.4612" stroke="#231F20" stroke-width="1.2" stroke-miterlimit="10"/>
<path d="M27.7138 20.4785L22.5898 26.3465" stroke="#231F20" stroke-width="1.2" stroke-miterlimit="10"/>
<path d="M35.9285 33.4492L34.0625 35.4652" stroke="#11282D" stroke-width="1.2" stroke-miterlimit="10"/>
<path d="M39.7626 38.8848L37.8906 40.9008" stroke="#11282D" stroke-width="1.2" stroke-miterlimit="10"/>
<path d="M39.2938 33.9121L34.1758 39.7801" stroke="#11282D" stroke-width="1.2" stroke-miterlimit="10"/>
</svg>
