<svg width="60" height="60" viewBox="0 0 60 60" fill="none" xmlns="http://www.w3.org/2000/svg">
<path d="M36.7031 48.6387H23.4375L21.668 35.1973H38.4727L36.7031 48.6387Z" fill="#292D32"/>
<path d="M37.8406 24.0167C37.8406 24.0167 29.8191 23.7472 30.0887 31.7159C30.0945 31.7159 38.4793 33.3097 37.8406 24.0167Z" fill="#292D32"/>
<path d="M36.2813 10.2246V15.457C36.2813 18.7559 33.5215 21.4277 30.1172 21.4277C26.7129 21.4277 23.9531 18.7559 23.9531 15.457V10.2246L27.3633 12.6211L30.1172 10.2246L32.8359 12.7617L36.2813 10.2246Z" fill="#292D32"/>
<path d="M39.3177 34.4582C39.1067 34.2179 38.7962 34.0773 38.4739 34.0773H31.1907V32.9582C31.2727 32.9582 31.3548 32.964 31.4368 32.964C33.0774 32.964 35.386 32.589 37.0677 30.8019C38.5442 29.2316 39.1888 26.9289 38.9837 23.9406C38.9427 23.3605 38.4622 22.9035 37.8763 22.88H37.7415C37.0559 22.88 33.5755 23.0031 31.1848 25.3644V21.7375C31.1848 21.714 31.179 21.6906 31.179 21.6671C34.6888 21.1632 37.3958 18.216 37.3958 14.6593V9.42691C37.3958 9.00503 37.1556 8.61831 36.7806 8.42495C36.4056 8.2316 35.9485 8.27261 35.6087 8.52456L32.9134 10.5109L30.8802 8.60074C30.4583 8.20816 29.8138 8.19644 29.3802 8.5773L27.2884 10.3996L24.5989 8.50699C24.2591 8.26675 23.8079 8.23745 23.4388 8.43081C23.0696 8.62417 22.8352 9.00503 22.8352 9.42691V14.6593C22.8352 18.1867 25.4954 21.1105 28.9583 21.6554C28.9583 21.6847 28.9524 21.7082 28.9524 21.7375V30.9015C28.9407 31.1828 28.9407 31.4699 28.9466 31.7628C28.9466 31.7746 28.9524 31.7863 28.9524 31.7921V34.0773H21.6692C21.347 34.0773 21.0423 34.2179 20.8255 34.4582C20.6145 34.6984 20.5149 35.0207 20.5559 35.3429L22.3255 48.7843C22.4016 49.341 22.8763 49.757 23.4388 49.757H36.7102C37.2727 49.757 37.7473 49.341 37.8235 48.7843L39.5931 35.3371C39.6282 35.0207 39.5286 34.6984 39.3177 34.4582ZM32.7376 27.046C33.9388 25.8156 35.6438 25.3878 36.7278 25.2355C36.6927 26.9933 36.2415 28.341 35.3977 29.2433C34.2786 30.4328 32.6321 30.6847 31.4427 30.6847H31.261C31.3665 29.1613 31.8587 27.9425 32.7376 27.046ZM25.0735 14.6535V11.5773L26.72 12.7316C27.1419 13.0304 27.7102 13.0011 28.1028 12.6613L30.095 10.9269L32.0755 12.7726C32.4681 13.1418 33.0716 13.1769 33.5052 12.8546L35.1634 11.63V14.6476C35.1634 17.3253 32.9016 19.4992 30.1184 19.4992C27.3352 19.4992 25.0735 17.3312 25.0735 14.6535ZM37.1966 36.3156L36.9036 38.5539H23.2395L22.9466 36.3156H37.1966ZM35.7259 47.5187H24.4173L23.386 39.673H36.7513L35.7259 47.5187Z" fill="#292D32"/>
</svg>
