<svg width="60" height="60" viewBox="0 0 60 60" fill="none" xmlns="http://www.w3.org/2000/svg">
<path d="M7.5 30.8711H52.5C54.5696 30.8711 56.25 32.5515 56.25 34.6211V45.8711H3.75V34.6211C3.75 32.5515 5.43037 30.8711 7.5 30.8711Z" fill="#292D32"/>
<path d="M54.375 29.3407V15.8701C54.375 14.8348 53.5354 13.9951 52.5 13.9951C51.4646 13.9951 50.625 14.8348 50.625 15.8701V16.6346C47.8851 16.5247 42.5516 15.927 38.9062 13.0621C35.1334 10.0959 30.1446 10.2378 30.0651 10.2405C29.8491 10.236 24.8676 10.0959 21.0937 13.0621C17.4478 15.9281 12.1147 16.5271 9.375 16.6363V15.87C9.375 14.8346 8.53537 13.995 7.5 13.995C6.46462 13.995 5.625 14.8346 5.625 15.87V29.3405C3.44719 30.117 1.875 32.1789 1.875 34.62V45.87C1.875 46.9053 2.71462 47.745 3.75 47.745H5.625V49.62C5.625 50.6553 6.46462 51.495 7.5 51.495C8.53537 51.495 9.375 50.6553 9.375 49.62V47.745H50.625V49.62C50.625 50.6553 51.4646 51.495 52.5 51.495C53.5354 51.495 54.375 50.6553 54.375 49.62V47.745H56.25C57.2854 47.745 58.125 46.9053 58.125 45.87V34.62C58.125 32.1789 56.5528 30.1171 54.375 29.3407ZM23.4118 16.0102C26.0878 13.9063 29.8974 13.986 30.0585 13.9888C30.0887 13.9843 33.9101 13.9055 36.588 16.0102C41.1457 19.592 47.4548 20.285 50.6248 20.3936V28.9951H46.8748V27.1201C46.8748 25.052 45.1929 23.3701 43.1248 23.3701H35.6248C33.5567 23.3701 31.8748 25.052 31.8748 27.1201V28.9951H28.1248V27.1201C28.1248 25.052 26.4429 23.3701 24.3748 23.3701H16.8748C14.8067 23.3701 13.1248 25.052 13.1248 27.1201V28.9951H9.37481V20.3925C12.5445 20.2841 18.8543 19.593 23.4118 16.0102ZM43.125 28.9951H35.625V27.1201H43.125V28.9951ZM24.375 28.9951H16.875V27.1201H24.375V28.9951ZM54.375 43.9951H5.625V34.6201C5.625 33.5865 6.46631 32.7451 7.5 32.7451H52.5C53.5337 32.7451 54.375 33.5865 54.375 34.6201V43.9951Z" fill="#292D32"/>
</svg>
