<svg width="60" height="60" viewBox="0 0 60 60" fill="none" xmlns="http://www.w3.org/2000/svg">
<path d="M10 18.0254V27.5004C10 30.1526 11.0536 32.6961 12.9289 34.5715C14.8043 36.4468 17.3478 37.5004 20 37.5004H40C42.6522 37.5004 45.1957 36.4468 47.0711 34.5715C48.9464 32.6961 50 30.1526 50 27.5004V20.0004H30H27.175C23.3179 19.8795 19.4703 19.5457 15.65 19.0004C13.85 18.7254 12.05 18.4254 10.275 18.0754L10 18.0254Z" fill="#292D32"/>
<path d="M15 42.5004L16.25 37.5004M45 42.5004L43.75 37.5004M10 18.0254V27.5004C10 30.1526 11.0536 32.6961 12.9289 34.5715C14.8043 36.4468 17.3478 37.5004 20 37.5004H40C42.6522 37.5004 45.1957 36.4468 47.0711 34.5715C48.9464 32.6961 50 30.1526 50 27.5004V20.0004H30H27.175C23.3179 19.8795 19.4703 19.5457 15.65 19.0004C13.85 18.7254 12.05 18.4254 10.275 18.0754L10 18.0254Z" stroke="#292D32" stroke-width="4" stroke-linecap="round" stroke-linejoin="round"/>
<path d="M52.5 20H30C22.4311 19.9923 14.886 19.1539 7.5 17.5" stroke="#292D32" stroke-width="4" stroke-linecap="round" stroke-linejoin="round"/>
</svg>
