<svg width="61" height="60" viewBox="0 0 61 60" fill="none" xmlns="http://www.w3.org/2000/svg">
<path d="M8.41977 19.1077L12.412 24.4672C12.0394 25.5302 11.0696 26.2648 9.95319 26.3293L5.96094 20.9698C6.1311 19.7726 7.23194 18.9388 8.41977 19.1077Z" fill="#292D32"/>
<path d="M36.2769 23.1836L15.8594 48.3987L20.4708 51.6586L38.6765 28.8853L40.5797 26.6233L36.2769 23.1836Z" fill="#292D32"/>
<path d="M39.4855 26.694C42.189 28.8402 46.7003 27.6578 49.5618 24.0532C52.4233 20.4486 52.5515 15.7866 49.848 13.6404L45.5587 19.0436L43.1982 19.0013L42.6338 16.6963L46.9107 11.3087C44.2072 9.16252 39.6959 10.3449 36.8344 13.9495C33.9729 17.5541 33.8447 22.2161 36.5482 24.3623" fill="#292D32"/>
<path d="M23.2902 21.6523L33.0822 34.7546L35.9291 36.7428L43.5271 48.7303L40.8617 50.6273L39.9733 51.2596L31.4869 39.9043L30.417 36.6515L20.625 23.5493L23.2902 21.6523Z" fill="#292D32"/>
<path d="M10.5195 16.613L15.4739 23.2092L23.9548 16.8393L21.1237 13.07C21.1237 13.07 26.7775 8.82345 30.0777 9.29245C30.0777 9.29245 24.5369 6.82145 19.0004 10.243C13.4638 13.6646 10.5195 16.613 10.5195 16.613Z" fill="#292D32"/>
<path d="M43.8309 49.0894L34.5824 35.9804L32.0039 34.1181L23.1891 21.8555L20.7422 23.6262L29.5569 35.8889L30.5043 38.9316L40.0781 51.8566L43.8309 49.0894Z" stroke="#292D32" stroke-width="1.66667" stroke-miterlimit="10" stroke-linecap="round" stroke-linejoin="round"/>
<path d="M10.9258 16.4915L15.7515 23.1823L24.354 16.9777L21.5964 13.1544C21.5964 13.1544 27.3314 9.01798 30.6219 9.5509C30.6219 9.5509 25.13 6.97315 19.5283 10.2869C13.9265 13.6006 10.9258 16.4915 10.9258 16.4915Z" stroke="#292D32" stroke-width="1.66667" stroke-miterlimit="10" stroke-linecap="round" stroke-linejoin="round"/>
<path d="M8.77567 18.9441L12.6634 24.3798C12.2703 25.4356 11.2864 26.1512 10.169 26.1941L6.28125 20.7583C6.4745 19.5646 7.59133 18.7522 8.77567 18.9441Z" stroke="#292D32" stroke-width="1.66667" stroke-miterlimit="10" stroke-linecap="round" stroke-linejoin="round"/>
<path d="M34.9062 32.09L39.1248 26.6934" stroke="#292D32" stroke-width="1.66667" stroke-miterlimit="10" stroke-linecap="round" stroke-linejoin="round"/>
<path d="M36.2776 24.4336L32.3945 29.2338" stroke="#292D32" stroke-width="1.66667" stroke-miterlimit="10" stroke-linecap="round" stroke-linejoin="round"/>
<path d="M39.1261 26.694C41.8296 28.8402 46.341 27.6578 49.2025 24.0532C52.064 20.4486 52.1921 15.7866 49.4886 13.6404L45.1994 19.0436L42.8388 19.0013L42.2745 16.6963L46.5514 11.3087C43.8479 9.16252 39.3365 10.3449 36.475 13.9495C33.6135 17.5542 33.4854 22.2161 36.1889 24.3623" stroke="#292D32" stroke-width="1.66667" stroke-miterlimit="10" stroke-linecap="round" stroke-linejoin="round"/>
<path d="M26.1804 36.9883L16.332 49.0889L19.6654 51.5889L27.9643 40.9724" stroke="#292D32" stroke-width="1.66667" stroke-miterlimit="10" stroke-linecap="round" stroke-linejoin="round"/>
</svg>
