<svg width="61" height="61" viewBox="0 0 61 61" fill="none" xmlns="http://www.w3.org/2000/svg">
<path d="M10.793 9.63086H50.793C52.726 9.63086 54.293 11.1979 54.293 13.1309V33.1309C54.293 35.0639 52.726 36.6309 50.793 36.6309H10.793C8.85997 36.6309 7.29297 35.0639 7.29297 33.1309V13.1309C7.29297 11.1979 8.85997 9.63086 10.793 9.63086Z" fill="#292D32" stroke="#292D32" stroke-width="3"/>
<path d="M17.293 36.6309V33.1309C17.293 32.2026 17.6617 31.3124 18.3181 30.656C18.9745 29.9996 19.8647 29.6309 20.793 29.6309H40.793C41.7212 29.6309 42.6115 29.9996 43.2678 30.656C43.9242 31.3124 44.293 32.2026 44.293 33.1309V36.6309H17.293ZM15.0859 44.9237C15.2734 44.7362 15.5277 44.6309 15.793 44.6309C16.0582 44.6309 16.3125 44.7362 16.5001 44.9237C16.6876 45.1113 16.793 45.3656 16.793 45.6309V50.6309C16.793 50.8961 16.6876 51.1504 16.5001 51.338C16.3125 51.5255 16.0582 51.6309 15.793 51.6309C15.5277 51.6309 15.2734 51.5255 15.0859 51.338C14.8983 51.1504 14.793 50.8961 14.793 50.6309V45.6309C14.793 45.3656 14.8983 45.1113 15.0859 44.9237ZM45.0859 44.9237C45.2734 44.7362 45.5277 44.6309 45.793 44.6309C46.0582 44.6309 46.3125 44.7362 46.5001 44.9237C46.6876 45.1113 46.793 45.3656 46.793 45.6309V50.6309C46.793 50.8961 46.6876 51.1504 46.5001 51.338C46.3125 51.5255 46.0582 51.6309 45.793 51.6309C45.5277 51.6309 45.2734 51.5255 45.0859 51.338C44.8983 51.1504 44.793 50.8961 44.793 50.6309V45.6309C44.793 45.3656 44.8983 45.1113 45.0859 44.9237ZM25.0859 44.9237C25.2734 44.7362 25.5278 44.6309 25.793 44.6309C26.0582 44.6309 26.3125 44.7362 26.5001 44.9237C26.6876 45.1113 26.793 45.3656 26.793 45.6309V50.6309C26.793 50.8961 26.6876 51.1504 26.5001 51.338C26.3125 51.5255 26.0582 51.6309 25.793 51.6309C25.5278 51.6309 25.2734 51.5255 25.0859 51.338C24.8983 51.1504 24.793 50.8961 24.793 50.6309V45.6309C24.793 45.3656 24.8983 45.1113 25.0859 44.9237ZM35.0859 44.9237C35.2734 44.7362 35.5278 44.6309 35.793 44.6309C36.0582 44.6309 36.3125 44.7362 36.5001 44.9237C36.6876 45.1113 36.793 45.3656 36.793 45.6309V50.6309C36.793 50.8961 36.6876 51.1504 36.5001 51.338C36.3125 51.5255 36.0582 51.6309 35.793 51.6309C35.5278 51.6309 35.2734 51.5255 35.0859 51.338C34.8983 51.1504 34.793 50.8961 34.793 50.6309V45.6309C34.793 45.3656 34.8983 45.1113 35.0859 44.9237Z" fill="white" stroke="#292D32" stroke-width="3"/>
</svg>
