<svg width="60" height="60" viewBox="0 0 60 60" fill="none" xmlns="http://www.w3.org/2000/svg">
<path d="M47.5001 10V50C47.5001 50.663 47.2367 51.2989 46.7679 51.7678C46.2991 52.2366 45.6632 52.5 45.0001 52.5H30.0001C30.0001 52.5 30.0001 39.425 36.9001 33.025C33.5239 29.696 30.8556 25.7188 29.0555 21.3324C27.2554 16.946 26.3607 12.241 26.4251 7.5H45.0001C45.6632 7.5 46.2991 7.76339 46.7679 8.23223C47.2367 8.70107 47.5001 9.33696 47.5001 10Z" fill="#292D32"/>
<path d="M30 47.5H12.5V7.5H26.425" stroke="#292D32" stroke-width="4" stroke-linecap="round" stroke-linejoin="round"/>
<path d="M36.8482 33.175C29.9982 39.225 29.9982 52.5 29.9982 52.5H44.9982C45.6612 52.5 46.2971 52.2366 46.766 51.7678C47.2348 51.2989 47.4982 50.663 47.4982 50V10C47.4982 9.33696 47.2348 8.70107 46.766 8.23223C46.2971 7.76339 45.6612 7.5 44.9982 7.5H26.4232C26.3036 14.3993 28.2451 21.1775 31.9995 26.9671C35.7539 32.7568 41.1503 37.2946 47.4982 40" stroke="#292D32" stroke-width="4" stroke-linecap="round" stroke-linejoin="round"/>
</svg>
