<svg width="86" height="85" viewBox="0 0 86 85" fill="none" xmlns="http://www.w3.org/2000/svg">
<g clip-path="url(#clip0_4112_28065)">
<path d="M48.388 37.1744C48.8191 38.7404 49.0258 40.3518 49.0074 41.9598L75.217 43.4498L70.7506 38.4452L48.388 37.1744Z" fill="#292D32"/>
<path d="M47.2797 49.2835L49.0997 49.387L52.0141 46.786C52.3365 46.4983 52.8295 46.5263 53.1172 46.8487L55.7182 49.7631L58.6326 47.1621C58.9549 46.8744 59.448 46.9025 59.7357 47.2248L62.3366 50.1392L65.251 47.5382C65.5734 47.2505 66.0664 47.2786 66.3541 47.6009L68.9551 50.5153L75.1255 45.0085L48.9148 43.5185C48.7122 45.5055 48.1635 47.4591 47.2797 49.2835Z" fill="#292D32"/>
<path d="M25.5805 34.7694C21.7236 38.2115 21.3861 44.1494 24.8283 48.0063C28.2704 51.8632 34.2082 52.2006 38.0652 48.7585C41.9221 45.3164 42.2595 39.3785 38.8174 35.5216C35.3753 31.6647 29.4374 31.3273 25.5805 34.7694ZM37.0248 47.5928C33.8108 50.4611 28.8624 50.1799 25.994 46.9659C23.1257 43.7519 23.4069 38.8035 26.6209 35.9351C29.8349 33.0668 34.7833 33.348 37.6516 36.562C40.52 39.776 40.2388 44.7244 37.0248 47.5928Z" fill="#292D32"/>
<path d="M27.6591 37.1021C25.0881 39.3967 24.8626 43.355 27.1576 45.9267C29.4517 48.4972 33.4112 48.7228 35.9822 46.4282C38.5533 44.1336 38.7778 40.1741 36.4837 37.6036C34.1886 35.0319 30.2302 34.8075 27.6591 37.1021ZM34.9419 45.2624C33.0131 46.9838 30.0447 46.8151 28.3234 44.8863C26.6021 42.9576 26.7708 39.9892 28.6995 38.2679C30.6283 36.5466 33.5966 36.7152 35.318 38.644C37.0393 40.5727 36.8706 43.5411 34.9419 45.2624Z" fill="#292D32"/>
<path d="M70.832 36.8827L47.855 35.577C47.1314 33.695 46.0653 31.9103 44.6457 30.3196C38.3352 23.2487 27.449 22.63 20.3781 28.9405C13.3071 35.251 12.6885 46.1372 18.999 53.2081C25.3094 60.2791 36.1957 60.8977 43.2666 54.5872C44.546 53.4454 45.6111 52.1514 46.4655 50.7586C46.5727 50.7896 46.6837 50.813 46.8006 50.8197L49.0068 50.945C49.4204 50.9685 49.8269 50.8267 50.1358 50.551L52.4673 48.4703L54.5481 50.8018C55.1224 51.4453 56.1107 51.5015 56.7542 50.9272L59.0858 48.8464L61.1665 51.1779C61.7408 51.8214 62.7292 51.8776 63.3727 51.3033L65.7042 49.2225L67.785 51.554C68.3593 52.1975 69.3476 52.2537 69.9911 51.6794L76.9857 45.4371C77.6292 44.8628 77.6854 43.8744 77.1111 43.2309L71.9091 37.4021C71.6329 37.0926 71.2457 36.9063 70.832 36.8827ZM42.2262 53.4215C35.7982 59.1582 25.9009 58.5952 20.1647 52.1677C14.4275 45.7392 14.9904 35.843 21.4184 30.1063C27.8464 24.3695 37.7427 24.9314 43.4799 31.36C49.2161 37.7874 48.6542 47.6848 42.2262 53.4215ZM68.9508 50.5136L66.3498 47.5992C66.0621 47.2769 65.569 47.2489 65.2467 47.5365L62.3323 50.1375L59.7313 47.2231C59.4437 46.9008 58.9506 46.8728 58.6283 47.1604L55.7139 49.7614L53.1129 46.847C52.8252 46.5247 52.3321 46.4966 52.0098 46.7843L49.0954 49.3853L47.2753 49.2818C48.1597 47.458 48.7079 45.5039 48.9115 43.5168L75.1211 45.0069L68.9508 50.5136ZM75.2098 43.4471L48.9991 41.957C49.018 40.3485 48.8113 38.7382 48.3796 37.1716L70.7434 38.4425L75.2098 43.4471Z" fill="#292D32"/>
<path d="M21.4271 30.1039C14.9991 35.8406 14.4362 45.7368 20.1734 52.1654C25.9096 58.5928 35.8069 59.1558 42.2349 53.4191C48.6629 47.6824 49.2248 37.7851 43.4886 31.3576C37.7514 24.9291 27.8551 24.3672 21.4271 30.1039ZM38.0734 48.7561C34.2106 52.2034 28.2838 51.8666 24.8365 48.0039C21.3891 44.1411 21.7259 38.2143 25.5887 34.767C29.4514 31.3196 35.3783 31.6565 38.8256 35.5192C42.2729 39.3819 41.9361 45.3088 38.0734 48.7561Z" fill="#292D32"/>
<path d="M26.6296 35.9328C23.4109 38.8053 23.1297 43.7443 26.0027 46.9636C28.8747 50.1817 33.8148 50.4629 37.0335 47.5904C40.2521 44.7179 40.5323 39.7778 37.6603 36.5597C34.7873 33.3404 29.8482 33.0603 26.6296 35.9328ZM35.9931 46.4247C33.4179 48.7229 29.4667 48.4983 27.1685 45.9232C24.8703 43.348 25.0948 39.3968 27.67 37.0986C30.2451 34.8004 34.1964 35.0249 36.4946 37.6001C38.7928 40.1752 38.5682 44.1264 35.9931 46.4247Z" fill="#292D32"/>
<path opacity="0.15" d="M70.7439 38.4414L75.2103 43.446L48.9996 41.9559C49.0185 40.3474 48.8118 38.7371 48.3802 37.1705L70.7439 38.4414Z" fill="white"/>
<path opacity="0.2" d="M26.6218 35.9348C23.4031 38.8073 23.1219 43.7463 25.9949 46.9655C28.8669 50.1836 33.807 50.4649 37.0257 47.5924C40.2443 44.7199 40.5245 39.7797 37.6525 36.5616C34.7795 33.3424 29.8404 33.0623 26.6218 35.9348ZM35.9853 46.4266C33.4101 48.7248 29.4589 48.5003 27.1607 45.9251C24.8625 43.35 25.087 39.3988 27.6622 37.1005C30.2373 34.8023 34.1885 35.0269 36.4868 37.602C38.785 40.1772 38.5604 44.1284 35.9853 46.4266Z" fill="#292D32"/>
</g>
<defs>
<clipPath id="clip0_4112_28065">
<rect width="60" height="60" fill="white" transform="translate(0.703125 39.9941) rotate(-41.7475)"/>
</clipPath>
</defs>
</svg>
