<svg width="60" height="60" viewBox="0 0 60 60" fill="none" xmlns="http://www.w3.org/2000/svg">
<mask id="path-1-outside-1_4395_31288" maskUnits="userSpaceOnUse" x="7" y="23.4395" width="29" height="31" fill="black">
<rect fill="white" x="7" y="23.4395" width="29" height="31"/>
<path d="M26.5672 35.4918L18.2173 26.8237C17.723 26.3114 16.9084 26.3114 16.414 26.8237L10.3558 33.1142C9.88142 33.6065 9.88142 34.3911 10.3558 34.8834L25.5285 50.6385C26.0228 51.1509 26.8374 51.1509 27.3317 50.6385L33.1619 44.5843"/>
</mask>
<path d="M26.5672 35.4918L18.2173 26.8237C17.723 26.3114 16.9084 26.3114 16.414 26.8237L10.3558 33.1142C9.88142 33.6065 9.88142 34.3911 10.3558 34.8834L25.5285 50.6385C26.0228 51.1509 26.8374 51.1509 27.3317 50.6385L33.1619 44.5843" fill="white"/>
<path d="M18.2173 26.8237L20.3779 24.7424L20.3762 24.7407L18.2173 26.8237ZM16.414 26.8237L14.2551 24.7407L14.2532 24.7427L16.414 26.8237ZM10.3558 33.1142L12.5162 35.1956L12.5166 35.1952L10.3558 33.1142ZM10.3558 34.8834L12.5166 32.8024L12.5162 32.802L10.3558 34.8834ZM25.5285 50.6385L23.3676 52.7196L23.3695 52.7216L25.5285 50.6385ZM27.3317 50.6385L29.4907 52.7216L29.4927 52.7195L27.3317 50.6385ZM28.7278 33.4106L20.3779 24.7424L16.0567 28.905L24.4066 37.5731L28.7278 33.4106ZM20.3762 24.7407C18.7022 23.0057 15.9291 23.0057 14.2551 24.7407L18.573 28.9068C17.8877 29.617 16.7437 29.617 16.0584 28.9068L20.3762 24.7407ZM14.2532 24.7427L8.19493 31.0331L12.5166 35.1952L18.5749 28.9048L14.2532 24.7427ZM8.19528 31.0327C6.60157 32.687 6.60157 35.3106 8.19528 36.9648L12.5162 32.802C13.1613 33.4715 13.1613 34.5261 12.5162 35.1956L8.19528 31.0327ZM8.19487 36.9644L23.3676 52.7195L27.6894 48.5575L12.5166 32.8024L8.19487 36.9644ZM23.3695 52.7216C25.0435 54.4566 27.8167 54.4566 29.4907 52.7216L25.1728 48.5555C25.8581 47.8453 27.0021 47.8453 27.6874 48.5555L23.3695 52.7216ZM29.4927 52.7195L35.3228 46.6652L31.0009 42.5033L25.1708 48.5576L29.4927 52.7195Z" fill="#292D32" mask="url(#path-1-outside-1_4395_31288)"/>
<path d="M40.7276 18.3437L40.7286 18.3428C41.8127 17.2191 43.6066 17.2191 44.6908 18.3428L44.6918 18.3439L50.7112 24.5953L40.7276 18.3437ZM40.7276 18.3437L18.4327 41.4933C18.4324 41.4935 18.4322 41.4938 18.4319 41.4941C17.3819 42.5835 17.3821 44.3338 18.4324 45.423C18.4325 45.4231 18.4326 45.4232 18.4327 45.4233L24.451 51.6737C24.451 51.6737 24.4511 51.6738 24.4511 51.6738C25.5349 52.8015 27.3324 52.7982 28.4153 51.6759L28.4162 51.6749M40.7276 18.3437L28.4162 51.6749M28.4162 51.6749L50.7112 28.5254C50.7114 28.5251 50.7117 28.5248 50.712 28.5245M28.4162 51.6749L50.712 28.5245M50.712 28.5245C51.7617 27.4353 51.7618 25.6855 50.7121 24.5963L50.712 28.5245Z" fill="#292D32" stroke="#292D32" stroke-width="3" stroke-miterlimit="10"/>
</svg>
