<svg width="60" height="60" viewBox="0 0 60 60" fill="none" xmlns="http://www.w3.org/2000/svg">
<path d="M6.5221 22.1738H1.30469V37.8259H6.5221V22.1738Z" fill="#292D32"/>
<path d="M58.6979 22.1738H53.4805V37.8259H58.6979V22.1738Z" fill="#292D32"/>
<path d="M6.52344 18.4449V37.1984C6.52344 41.8671 10.9391 45.6519 16.386 45.6519H24.7844C24.7844 43.7995 26.5362 42.2979 28.6974 42.2979H31.3061C33.4673 42.2979 35.2191 43.7995 35.2191 45.6519H43.6174C49.0644 45.6519 53.48 41.8671 53.48 37.1984V18.4449C53.48 16.1821 51.3398 14.3477 48.7 14.3477H11.3035C8.66363 14.3477 6.52344 16.1821 6.52344 18.4449Z" fill="#292D32"/>
<path d="M58.6956 20.869H54.7826V18.4445C54.7826 15.4662 52.0531 13.043 48.6982 13.043H11.3018C7.94682 13.043 5.21741 15.4662 5.21741 18.4445V20.869H1.30429C0.583944 20.869 0 21.4529 0 22.1733V37.8254C0 38.5457 0.583944 39.1297 1.30429 39.1297H5.43808C6.46698 43.5879 10.9836 46.9558 16.3843 46.9558H24.7826C25.503 46.9558 26.0869 46.3718 26.0869 45.6515C26.0869 44.5212 27.2572 43.6019 28.6956 43.6019H31.3044C32.7428 43.6019 33.9131 44.5213 33.9131 45.6515C33.9131 46.3718 34.4971 46.9558 35.2174 46.9558H43.6157C49.0164 46.9558 53.533 43.5879 54.5619 39.1297H58.6957C59.4159 39.1297 60 38.5457 60 37.8254V34.0428C60 33.3225 59.4159 32.7385 58.6957 32.7385C57.9755 32.7385 57.3914 33.3225 57.3914 34.0428V36.5211H54.7827V23.4776H57.3914V25.9992C57.3914 26.7195 57.9755 27.3035 58.6957 27.3035C59.4159 27.3035 60 26.7195 60 25.9992V22.1731C59.9999 21.4529 59.4158 20.869 58.6956 20.869ZM2.60871 23.4776H5.21741V36.521H2.60871V23.4776ZM43.6156 44.3471H36.3136C35.6804 42.4113 33.6745 40.9931 31.3045 40.9931H28.6958C26.3259 40.9931 24.3199 42.4113 23.6866 44.3471H16.3844C11.6653 44.3471 7.82612 41.1399 7.82612 37.1978V22.1733V18.4444C7.82612 16.9043 9.38529 15.6516 11.3018 15.6516H48.698C50.6145 15.6516 52.1737 16.9044 52.1737 18.4444V22.1733V37.1978C52.1738 41.14 48.3346 44.3471 43.6156 44.3471Z" fill="#292D32"/>
<path d="M59.7788 29.277C59.7319 29.2052 59.6772 29.1387 59.6171 29.0787C59.5571 29.0187 59.4905 28.964 59.4188 28.917C59.3484 28.87 59.2727 28.8295 59.1931 28.797C59.1148 28.7644 59.0328 28.7383 58.9493 28.7227C58.7811 28.6888 58.6076 28.6888 58.4406 28.7227C58.3572 28.7384 58.2749 28.7644 58.1954 28.797C58.117 28.8295 58.0415 28.87 57.9711 28.917C57.8992 28.964 57.8327 29.0187 57.7727 29.0787C57.7127 29.1387 57.6579 29.2052 57.6109 29.277C57.5627 29.3474 57.5235 29.4231 57.4909 29.5027C57.4584 29.5809 57.4322 29.6631 57.4168 29.7465C57.3997 29.83 57.3906 29.9161 57.3906 30.0008C57.3906 30.0856 57.3997 30.1717 57.4168 30.2551C57.4322 30.3386 57.4584 30.4208 57.4909 30.499C57.5235 30.5786 57.5627 30.6543 57.6109 30.7247C57.6579 30.7964 57.7127 30.863 57.7727 30.923C57.8327 30.983 57.8992 31.0377 57.9711 31.0847C58.0415 31.1317 58.117 31.1721 58.1954 31.2047C58.2749 31.2373 58.3571 31.2634 58.4406 31.279C58.5241 31.296 58.6102 31.3051 58.6949 31.3051C58.7795 31.3051 58.8658 31.296 58.9492 31.279C59.0327 31.2633 59.1149 31.2373 59.193 31.2047C59.2725 31.1721 59.3482 31.1317 59.4187 31.0847C59.4904 31.0377 59.557 30.983 59.617 30.923C59.8595 30.6804 59.9992 30.3438 59.9992 30.0008C59.9992 29.9161 59.9901 29.83 59.9731 29.7465C59.9574 29.6631 59.9314 29.5808 59.8988 29.5027C59.8661 29.4231 59.8258 29.3474 59.7788 29.277Z" fill="#292D32"/>
<path d="M14.9554 18.2617C12.462 18.2617 10.4336 20.2901 10.4336 22.7835V26.0878C10.4336 26.8082 11.0175 27.3921 11.7379 27.3921C12.4582 27.3921 13.0422 26.8082 13.0422 26.0878V22.7835C13.0422 21.7287 13.9005 20.8704 14.9553 20.8704C15.6756 20.8704 16.2596 20.2865 16.2596 19.5661C16.2596 18.8458 15.6757 18.2617 14.9554 18.2617Z" fill="white"/>
<path d="M12.4619 28.9155C12.3914 28.8685 12.3157 28.828 12.2362 28.7955C12.1579 28.7629 12.0757 28.7367 11.9923 28.7197C11.824 28.6872 11.6519 28.6872 11.4836 28.7197C11.4002 28.7367 11.3179 28.7628 11.2397 28.7955C11.1602 28.828 11.0845 28.8685 11.014 28.9155C10.9423 28.9624 10.8757 29.0172 10.8157 29.0772C10.5732 29.3197 10.4336 29.6563 10.4336 29.9993C10.4336 30.084 10.4427 30.1702 10.4597 30.2536C10.4754 30.337 10.5014 30.4193 10.534 30.4989C10.5666 30.5772 10.607 30.6528 10.654 30.7232C10.701 30.7949 10.7557 30.8615 10.8157 30.9215C10.8757 30.9815 10.9423 31.0362 11.014 31.0832C11.0845 31.1302 11.1602 31.1706 11.2397 31.2032C11.318 31.2358 11.4002 31.2619 11.4836 31.2775C11.567 31.2945 11.6532 31.3036 11.7379 31.3036C11.8226 31.3036 11.9087 31.2945 11.9922 31.2775C12.0756 31.2618 12.1579 31.2358 12.2361 31.2032C12.3156 31.1706 12.3913 31.1302 12.4618 31.0832C12.5335 31.0362 12.6 30.9815 12.66 30.9215C12.72 30.8615 12.7748 30.7949 12.8218 30.7232C12.8687 30.6528 12.9092 30.577 12.9418 30.4989C12.9743 30.4193 13.0005 30.3372 13.0161 30.2536C13.033 30.1702 13.0422 30.084 13.0422 29.9993C13.0422 29.6563 12.9026 29.3197 12.66 29.0772C12.6002 29.0172 12.5336 28.9624 12.4619 28.9155Z" fill="white"/>
</svg>
