<svg width="60" height="60" viewBox="0 0 60 60" fill="none" xmlns="http://www.w3.org/2000/svg">
<path d="M50 32.5V37.5C50 40.1522 48.9464 42.6957 47.0711 44.5711C45.1957 46.4464 42.6522 47.5 40 47.5H20C17.3478 47.5 14.8043 46.4464 12.9289 44.5711C11.0536 42.6957 10 40.1522 10 37.5V32.5H50Z" fill="#292D32"/>
<path d="M27.5 15C27.5 13.0109 26.7098 11.1032 25.3033 9.6967C23.8968 8.29018 21.9891 7.5 20 7.5C18.0109 7.5 16.1032 8.29018 14.6967 9.6967C13.2902 11.1032 12.5 13.0109 12.5 15V32.5" stroke="#292D32" stroke-width="4" stroke-linecap="round" stroke-linejoin="round"/>
<path d="M43.75 47.5L45 52.5M16.25 47.5L15 52.5M7.5 32.5H52.5M22.5 20C22.5 18.6739 23.0268 17.4021 23.9645 16.4645C24.9021 15.5268 26.1739 15 27.5 15C28.8261 15 30.0979 15.5268 31.0355 16.4645C31.9732 17.4021 32.5 18.6739 32.5 20H22.5ZM40 47.5H20C17.3478 47.5 14.8043 46.4464 12.9289 44.5711C11.0536 42.6957 10 40.1522 10 37.5V32.5H50V37.5C50 40.1522 48.9464 42.6957 47.0711 44.5711C45.1957 46.4464 42.6522 47.5 40 47.5Z" stroke="#292D32" stroke-width="4" stroke-linecap="round" stroke-linejoin="round"/>
</svg>
