<svg width="60" height="60" viewBox="0 0 60 60" fill="none" xmlns="http://www.w3.org/2000/svg">
<g clip-path="url(#clip0_4395_31275)">
<mask id="path-1-outside-1_4395_31275" maskUnits="userSpaceOnUse" x="3.58203" y="16.5664" width="54" height="24" fill="black">
<rect fill="white" x="3.58203" y="16.5664" width="54" height="24"/>
<path d="M22.582 19.5664H6.58204V36.7093H54.582V30.995V25.2807V19.5664"/>
</mask>
<path d="M22.582 19.5664H6.58204V36.7093H54.582V30.995V25.2807V19.5664" fill="#292D32"/>
<path d="M22.582 16.5664C24.2389 16.5664 25.582 17.9096 25.582 19.5664C25.582 21.2233 24.2389 22.5664 22.582 22.5664V16.5664ZM6.58204 19.5664H3.58204C3.58204 17.9096 4.92518 16.5664 6.58204 16.5664V19.5664ZM6.58204 36.7093V39.7093C4.92518 39.7093 3.58204 38.3661 3.58204 36.7093H6.58204ZM54.582 36.7093H57.582C57.582 38.3661 56.2389 39.7093 54.582 39.7093V36.7093ZM51.582 19.5664C51.582 17.9096 52.9252 16.5664 54.582 16.5664C56.2389 16.5664 57.582 17.9096 57.582 19.5664H51.582ZM22.582 22.5664H6.58204V16.5664H22.582V22.5664ZM9.58204 19.5664V36.7093H3.58204V19.5664H9.58204ZM6.58204 33.7093H54.582V39.7093H6.58204V33.7093ZM51.582 25.2807V19.5664H57.582V25.2807H51.582ZM51.582 36.7093V30.995H57.582V36.7093H51.582ZM51.582 30.995V25.2807H57.582V30.995H51.582Z" fill="#292D32" mask="url(#path-1-outside-1_4395_31275)"/>
<path d="M55.9258 42C55.9258 42.8284 55.2542 43.5 54.4258 43.5C53.5974 43.5 52.9258 42.8284 52.9258 42V33.4286C52.9258 32.6001 53.5974 31.9286 54.4258 31.9286C55.2542 31.9286 55.9258 32.6001 55.9258 33.4286V42ZM4.49721 42C4.49721 42.8284 3.82564 43.5 2.99721 43.5C2.16879 43.5 1.49721 42.8284 1.49721 42V2C1.49721 1.17157 2.16879 0.5 2.99721 0.5C3.82564 0.5 4.49721 1.17157 4.49721 2V42Z" stroke="#292D32" stroke-width="3" stroke-linecap="round" stroke-linejoin="round"/>
<path d="M20.2969 18.4219L54.5826 18.4219V12.4219C54.5826 11.8914 54.2816 11.3827 53.7457 11.0077C53.2099 10.6326 52.4832 10.4219 51.7254 10.4219L23.154 10.4219C22.3963 10.4219 21.6695 10.6326 21.1337 11.0077C20.5979 11.3827 20.2969 11.8914 20.2969 12.4219V18.4219Z" fill="white" stroke="#292D32" stroke-width="3" stroke-linecap="round" stroke-linejoin="round"/>
</g>
<defs>
<clipPath id="clip0_4395_31275">
<rect width="60" height="60" fill="white"/>
</clipPath>
</defs>
</svg>
