<svg width="60" height="61" viewBox="0 0 60 61" fill="none" xmlns="http://www.w3.org/2000/svg">
<path d="M30 36.5C37.2487 36.5 43.125 29.7843 43.125 21.5C43.125 13.2157 37.2487 6.5 30 6.5C22.7513 6.5 16.875 13.2157 16.875 21.5C16.875 29.7843 22.7513 36.5 30 36.5Z" fill="#292D32" stroke="#292D32" stroke-width="2" stroke-miterlimit="10" stroke-linecap="round" stroke-linejoin="round"/>
<path d="M28.3125 36.3125L24.375 40.25C27.75 42.5 32.25 42.5 35.625 40.25L31.875 36.5" fill="#292D32"/>
<path d="M28.3125 36.3125L24.375 40.25C27.75 42.5 32.25 42.5 35.625 40.25L31.875 36.5" stroke="#292D32" stroke-width="2" stroke-miterlimit="10" stroke-linecap="round" stroke-linejoin="round"/>
<path d="M31.875 55.25L31.125 53.5625C30.5625 52.25 30.5625 50.75 31.125 49.4375C31.6875 48.3125 31.6875 47.1875 31.3125 45.875L30 41.9375" stroke="#292D32" stroke-width="2" stroke-miterlimit="10" stroke-linecap="round" stroke-linejoin="round"/>
</svg>
