<svg width="61" height="60" viewBox="0 0 61 60" fill="none" xmlns="http://www.w3.org/2000/svg">
<path d="M40.875 56.25C43.2912 56.25 45.25 54.2912 45.25 51.875C45.25 49.4588 43.2912 47.5 40.875 47.5C38.4588 47.5 36.5 49.4588 36.5 51.875C36.5 54.2912 38.4588 56.25 40.875 56.25Z" fill="#292D32"/>
<path d="M20.875 56.25C23.2912 56.25 25.25 54.2912 25.25 51.875C25.25 49.4588 23.2912 47.5 20.875 47.5C18.4588 47.5 16.5 49.4588 16.5 51.875C16.5 54.2912 18.4588 56.25 20.875 56.25Z" fill="#292D32"/>
<path d="M13.2171 9.92079L13.2177 9.9134L13.2182 9.90601C13.2828 8.90537 12.9588 7.92055 12.2675 7.16341L12.261 7.15629L12.2543 7.14931C11.5714 6.43391 10.6217 6.005 9.60003 6.005H5.25C4.70549 6.005 4.245 5.54451 4.245 5C4.245 4.45549 4.70549 3.995 5.25 3.995H9.675C11.2259 3.995 12.7425 4.66353 13.8048 5.80879C14.4694 6.56169 14.9062 7.47279 15.1266 8.44281L15.2805 9.12H15.975H46.65C50.5731 9.12 53.545 12.2942 53.2573 16.2112L53.2572 16.213C53.2153 16.7998 52.7266 17.255 52.125 17.255H13.85C13.1684 17.255 12.6614 16.7 12.7169 16.0488L12.7171 16.0458L13.2171 9.92079Z" fill="#292D32" stroke="#292D32" stroke-width="1.74"/>
<path d="M52.6335 23.9247L52.6334 23.9246L52.6324 23.9387L51.8076 35.6114C51.8076 35.6115 51.8076 35.6117 51.8076 35.6118C51.5655 38.9091 48.6423 41.63 45.3503 41.63H17.5502C13.7886 41.63 10.8337 38.3944 11.1422 34.6468C11.1422 34.6466 11.1422 34.6465 11.1422 34.6464L12.0416 23.779C12.1017 23.1905 12.5865 22.745 13.1752 22.745H51.5253C52.1999 22.745 52.6885 23.2927 52.6335 23.9247Z" fill="#292D32" stroke="#292D32" stroke-width="1.74"/>
</svg>
