<svg width="61" height="60" viewBox="0 0 61 60" fill="none" xmlns="http://www.w3.org/2000/svg">
<path d="M15.0369 40.0625C14.5467 46.0833 18.9992 51 24.9222 51H34.7054C41.3637 51 45.9388 45.5208 44.8359 38.8125C43.6717 31.7708 37.0134 26 30.0078 26C22.4101 26 15.67 32.3333 15.0369 40.0625Z" fill="#292D32" stroke="#292D32" stroke-width="1.74" stroke-linecap="round" stroke-linejoin="round"/>
<path d="M27.5 21C30.5376 21 33 18.5376 33 15.5C33 12.4624 30.5376 10 27.5 10C24.4624 10 22 12.4624 22 15.5C22 18.5376 24.4624 21 27.5 21Z" fill="#292D32" stroke="#292D32" stroke-width="1.74" stroke-linecap="round" stroke-linejoin="round"/>
<path d="M41.5 23C43.9853 23 46 21.2091 46 19C46 16.7909 43.9853 15 41.5 15C39.0149 15 37 16.7909 37 19C37 21.2091 39.0149 23 41.5 23Z" fill="#292D32" stroke="#292D32" stroke-width="1.74" stroke-linecap="round" stroke-linejoin="round"/>
<path d="M49.5 32C51.4329 32 53 30.433 53 28.5001C53 26.5669 51.4329 25 49.5 25C47.5671 25 46 26.5669 46 28.5001C46 30.433 47.5671 32 49.5 32Z" fill="#292D32" stroke="#292D32" stroke-width="1.74" stroke-linecap="round" stroke-linejoin="round"/>
<path d="M14 27C16.2091 27 18 25.2091 18 23C18 20.7908 16.2091 19 14 19C11.7909 19 10 20.7908 10 23C10 25.2091 11.7909 27 14 27Z" fill="#292D32" stroke="#292D32" stroke-width="1.74" stroke-linecap="round" stroke-linejoin="round"/>
</svg>
