<svg width="60" height="60" viewBox="0 0 60 60" fill="none" xmlns="http://www.w3.org/2000/svg">
<g clip-path="url(#clip0_4458_28240)">
<path d="M25.1082 8.29667C25.1082 11.2711 22.6969 13.6824 19.7225 13.6824C16.748 13.6824 14.3367 11.2711 14.3367 8.29667C14.3367 5.32221 16.748 2.91094 19.7225 2.91094C22.6969 2.91094 25.1082 5.32221 25.1082 8.29667Z" fill="#292D32" stroke="#292D32" stroke-width="1.4"/>
<path d="M38.1654 43.6509L38.1651 43.6507C37.949 43.4769 37.6328 43.5113 37.4591 43.7275L38.1654 43.6509ZM38.1654 43.6509L40.1925 45.2791M38.1654 43.6509L40.1925 45.2791M40.1925 45.2791V45.6453H40.8925H48.0754L53.1615 48.561V51.8865C53.1604 51.8935 53.1593 51.9008 53.1584 51.9083L53.1525 51.9534V51.9989V56.5456C53.1525 56.8237 52.9274 57.0483 52.651 57.0483C52.3733 57.0483 52.1484 56.8235 52.1484 56.5456V52.4372V51.7372H51.4484H43.9656H42.7547L43.359 52.7865L45.3797 56.2955L45.3799 56.2958C45.5179 56.535 45.4358 56.8424 45.195 56.9812L45.194 56.9817C45.1144 57.0278 45.0292 57.0489 44.9455 57.0489C44.7694 57.0489 44.6018 56.9581 44.5088 56.7971C44.5088 56.797 44.5088 56.797 44.5088 56.797C44.5087 56.7969 44.5087 56.7968 44.5086 56.7967L42.1935 52.7761L41.5559 51.6688L40.9659 52.8022L38.8973 56.7766C38.8972 56.7767 38.8971 56.7768 38.8971 56.777C38.8073 56.9485 38.6331 57.0477 38.4498 57.0477C38.3744 57.0477 38.2955 57.0301 38.2186 56.9905C37.973 56.8619 37.8779 56.559 38.0057 56.3134L38.0082 56.3086L37.3848 55.9902L38.0082 56.3086L38.0083 56.3084L38.0086 56.3079L38.0097 56.3057L38.0141 56.2971L38.0312 56.2635L38.0962 56.1362L38.3283 55.6815C38.5203 55.3051 38.7764 54.803 39.0325 54.3C39.2886 53.7972 39.5449 53.293 39.7373 52.9129C39.8334 52.7229 39.914 52.5631 39.9708 52.4495C39.999 52.393 40.0222 52.3463 40.0387 52.3125C40.0467 52.2961 40.0547 52.2796 40.0613 52.2655C40.0642 52.2593 40.0694 52.248 40.0748 52.2353C40.0771 52.2299 40.083 52.216 40.0895 52.1984C40.0925 52.1902 40.099 52.1722 40.1056 52.1488L40.1057 52.1485C40.1075 52.1427 40.1327 52.0606 40.1327 51.956V46.855V46.5194L39.8711 46.3092L37.5358 44.4334L37.5356 44.4333C37.3203 44.2604 37.2853 43.9441 37.4591 43.7275L40.1925 45.2791Z" fill="#292D32" stroke="#292D32" stroke-width="1.4"/>
<path d="M56.4944 43.0076L56.4945 43.0077L59.9974 44.8395L59.2997 44.7839C59.2996 44.7841 59.2996 44.7842 59.2996 44.7843C59.2656 45.2111 59.0747 45.4954 58.8007 45.6954C58.5077 45.9092 58.0981 46.038 57.6595 46.0636C57.1431 46.0937 56.6488 45.9998 56.1653 45.7888L56.1651 45.7887C56.0944 45.7579 56.0257 45.7281 55.958 45.6988C55.8292 45.6431 55.7042 45.589 55.577 45.5324L55.5748 45.5314C55.3329 45.4248 55.1181 45.4835 55.0513 45.504C54.9619 45.5313 54.8904 45.57 54.8474 45.5952C54.758 45.6477 54.6731 45.7136 54.606 45.769C54.4658 45.8848 54.3076 46.0355 54.1679 46.1741C54.1124 46.2291 54.0579 46.2842 54.006 46.3373L49.8837 43.9897C49.9895 43.8341 50.0955 43.6784 50.2016 43.5225C50.2961 43.3837 50.3907 43.2447 50.4853 43.1056L50.4857 43.1049C50.6091 42.9232 50.7348 42.7399 50.8618 42.5549C51.4898 41.6397 52.1466 40.6826 52.6807 39.6559C52.8796 39.2756 53.0233 38.872 53.1265 38.4795L53.1265 38.4793C53.2161 38.1381 53.3194 37.9682 53.3863 37.8898C53.4425 37.8239 53.4753 37.8181 53.4805 37.8172C53.4807 37.8171 53.4808 37.8171 53.4809 37.8171C53.4964 37.8139 53.5275 37.8133 53.5748 37.8282C53.6109 37.8396 53.6362 37.8536 53.6439 37.8579C53.647 37.8596 53.6472 37.8597 53.6441 37.8574L53.6454 37.8584C53.894 38.0413 54.0238 38.3369 53.9879 38.7848C53.9608 39.1207 53.9271 39.4602 53.8916 39.8036L53.8915 39.8042C53.8783 39.9334 53.8816 40.1242 53.9831 40.3212C54.0841 40.5172 54.2374 40.6322 54.3564 40.699C54.4684 40.7626 54.5787 40.8404 54.7229 40.9421C54.7294 40.9468 54.7361 40.9515 54.7428 40.9562C55.0584 41.1811 55.2733 41.4525 55.5238 41.8062C55.5537 41.8484 55.5844 41.8923 55.6162 41.9377C55.8402 42.258 56.1135 42.6487 56.4944 43.0076Z" fill="#292D32" stroke="#292D32" stroke-width="1.4"/>
<path d="M30.966 27.9667C30.9784 27.9614 30.991 27.9564 31.0037 27.9515L31.5839 28.9754C31.7614 29.2885 31.8415 29.6458 31.7911 30.0131L31.791 30.0136C31.6829 30.8054 31.029 31.3887 30.2521 31.4395L29.7255 31.474L29.7257 31.4083L29.1494 31.3033C26.6963 30.8563 24.9713 29.987 23.693 28.9295C22.4103 27.8683 21.5425 26.5889 20.8443 25.2691L19.9444 23.5681L19.5411 25.4498L17.9128 33.0479L18.5973 33.1946L17.9128 33.0479C17.8467 33.3562 17.743 33.6359 17.6112 33.8985L17.4336 34.2523L17.6453 34.5868L22.5103 42.2749L22.5108 42.2757C22.6357 42.4726 22.7298 42.6883 22.7902 42.914L22.7909 42.9165L25.8336 54.1251C25.8337 54.1256 25.8339 54.1262 25.834 54.1267C26.1612 55.3569 25.4302 56.6194 24.2004 56.9483C23.9979 57.0013 23.7972 57.0265 23.6023 57.0265L23.6017 57.0265C22.5825 57.0274 21.6502 56.3458 21.3753 55.3142L21.3744 55.3109L18.4493 44.5444L18.4216 44.4427L18.3653 44.3537L14.7924 38.7062L13.6429 36.8894L13.5023 39.0347L13.1467 44.4612L13.1467 44.4612C13.1314 44.6941 13.0806 44.9239 12.9961 45.1426C12.9961 45.1426 12.9961 45.1427 12.996 45.1427L8.94622 55.615C8.59262 56.5291 7.72058 57.0911 6.79409 57.0911C6.51838 57.0911 6.23733 57.0413 5.96365 56.9351L5.96256 56.9346C4.77452 56.4758 4.18356 55.1397 4.64321 53.9507L8.52765 43.9082L8.56628 43.8083L8.57329 43.7014L9.18428 34.3803L9.20107 34.124L9.04815 33.9177C8.42481 33.0766 8.13172 32.0774 8.36182 31.0036L8.36183 31.0036L10.3566 21.6932L10.8277 19.4944L9.19183 21.0374C7.24702 22.8717 5.74154 25.3914 4.11675 28.1145C4.11673 28.1146 4.11671 28.1146 4.11668 28.1147L3.78978 28.6623C3.78971 28.6624 3.78963 28.6626 3.78956 28.6627C3.78955 28.6627 3.78954 28.6627 3.78952 28.6627C3.47859 29.1825 2.92842 29.4717 2.3608 29.4717C2.07074 29.4717 1.77762 29.396 1.50946 29.2357C0.721292 28.7639 0.464992 27.743 0.935973 26.9556L0.936426 26.9549L1.26115 26.4104C1.26118 26.4104 1.26121 26.4103 1.26124 26.4103C4.45595 21.0572 7.59713 15.8904 14.6439 14.8561C15.3192 14.7745 16.3381 14.7519 16.8712 14.8544L16.8715 14.8545C17.1429 14.9066 17.4087 15.0005 17.6131 15.086C17.7136 15.1279 17.795 15.1661 17.85 15.1931C17.8773 15.2065 17.8979 15.217 17.9107 15.2237L17.9238 15.2306L17.9243 15.2309L17.9245 15.231L17.9246 15.2311L17.9249 15.2312L17.9254 15.2315L17.9256 15.2316L17.9395 15.2392L17.955 15.2467C18.5714 15.5455 19.1793 15.99 19.6752 16.5379L19.6811 16.5445L19.6873 16.551C19.7089 16.5737 19.7286 16.5916 19.7431 16.6043C21.2379 18.235 22.0856 20.0866 22.8721 21.8159L22.8722 21.816L22.9037 21.8853C23.6041 23.4248 24.2514 24.8475 25.3266 25.94C26.4518 27.0832 27.9843 27.8143 30.357 28.1404L30.6061 28.1747L30.82 28.0426C30.8687 28.0126 30.9167 27.9876 30.966 27.9667ZM19.7746 16.6305C19.7761 16.6317 19.7748 16.6307 19.7729 16.6291L19.7746 16.6305Z" fill="#292D32" stroke="#292D32" stroke-width="1.4"/>
</g>
<defs>
<clipPath id="clip0_4458_28240">
<rect width="60" height="60" fill="white"/>
</clipPath>
</defs>
</svg>
