<svg width="61" height="61" viewBox="0 0 61 61" fill="none" xmlns="http://www.w3.org/2000/svg">
<path d="M10.9348 47.9996C10.5494 47.9996 10.1678 47.9249 9.81169 47.7797C9.45563 47.6345 9.1321 47.4218 8.85958 47.1535C8.58706 46.8853 8.37088 46.5669 8.2234 46.2164C8.07591 45.866 8 45.4904 8 45.111V15.8885C8 15.5092 8.07591 15.1336 8.2234 14.7831C8.37088 14.4327 8.58706 14.1143 8.85958 13.846C9.1321 13.5778 9.45563 13.365 9.81169 13.2199C10.1678 13.0747 10.5494 13 10.9348 13H50.0652C50.4506 13 50.8322 13.0747 51.1883 13.2199C51.5444 13.365 51.8679 13.5778 52.1404 13.846C52.4129 14.1143 52.6291 14.4327 52.7766 14.7831C52.9241 15.1336 53 15.5092 53 15.8885V45.6406C52.8729 46.3117 52.5085 46.9169 51.9712 47.3487C51.434 47.7806 50.7587 48.0111 50.0652 47.9996H10.9348Z" fill="#292D32"/>
<path d="M50.0833 13.9296C50.3405 13.9296 50.5952 13.9795 50.8328 14.0765C51.0703 14.1734 51.2862 14.3156 51.4681 14.4948C51.6499 14.6739 51.7942 14.8867 51.8926 15.1208C51.991 15.3549 52.0417 15.6058 52.0417 15.8592V45.575C51.9402 46.0085 51.6899 46.3941 51.333 46.6666C50.9762 46.9391 50.5347 47.0818 50.0833 47.0704H10.9167C10.6595 47.0704 10.4048 47.0205 10.1672 46.9235C9.92965 46.8266 9.71376 46.6844 9.53192 46.5052C9.35007 46.3261 9.20582 46.1133 9.1074 45.8792C9.00899 45.6451 8.95833 45.3942 8.95833 45.1408V15.8592C8.95833 15.6058 9.00899 15.3549 9.1074 15.1208C9.20582 14.8867 9.35007 14.6739 9.53192 14.4948C9.71376 14.3156 9.92965 14.1734 10.1672 14.0765C10.4048 13.9795 10.6595 13.9296 10.9167 13.9296H50.0833ZM50.0833 12H10.9167C9.8779 12 8.88168 12.4066 8.14717 13.1303C7.41265 13.8541 7 14.8357 7 15.8592L7 45.1408C7 46.1643 7.41265 47.1459 8.14717 47.8697C8.88168 48.5934 9.8779 49 10.9167 49H50.0833C51.1221 49 52.1183 48.5934 52.8528 47.8697C53.5873 47.1459 54 46.1643 54 45.1408H53.951V15.8592C53.951 14.8357 53.5384 13.8541 52.8039 13.1303C52.0694 12.4066 51.0731 12 50.0344 12H50.0833Z" fill="#11282D"/>
<path d="M18.0003 25.9998C17.4716 26.0048 16.9472 25.9171 16.458 25.7418C15.9687 25.5665 15.5246 25.3072 15.1517 24.9793C14.7789 24.6513 14.4849 24.2613 14.2872 23.8323C14.0895 23.4033 13.992 22.9439 14.0005 22.4814C14.0047 21.79 14.2428 21.1151 14.6849 20.542C15.1269 19.9689 15.753 19.5232 16.4842 19.2611C17.2155 18.9991 18.019 18.9324 18.7935 19.0695C19.568 19.2067 20.2787 19.5414 20.8359 20.0316C21.3932 20.5218 21.7721 21.1455 21.9247 21.8239C22.0773 22.5023 21.9969 23.205 21.6935 23.8435C21.3902 24.4819 20.8775 25.0275 20.2202 25.4112C19.5629 25.795 18.7905 25.9998 18.0003 25.9998Z" fill="white"/>
<path d="M18 19.875C18.3837 19.87 18.7646 19.9341 19.1203 20.0637C19.476 20.1932 19.7993 20.3856 20.0711 20.6293C20.3429 20.8731 20.5578 21.1634 20.703 21.483C20.8482 21.8027 20.9209 22.1453 20.9167 22.4906C20.9208 22.8381 20.8485 23.183 20.7039 23.5052C20.5593 23.8275 20.3452 24.1208 20.0741 24.3683C19.803 24.6158 19.4802 24.8125 19.1242 24.9472C18.7682 25.0819 18.3861 25.1519 18 25.1531C17.6168 25.1569 17.2366 25.0915 16.882 24.9607C16.5273 24.8299 16.2055 24.6364 15.9355 24.3916C15.6654 24.1468 15.4527 23.8558 15.3099 23.5357C15.1671 23.2156 15.0972 22.873 15.1042 22.5281C15.0986 21.831 15.4003 21.1604 15.943 20.6631C16.4858 20.1658 17.2255 19.8824 18 19.875ZM18 18C17.0106 18 16.0435 18.2642 15.2211 18.759C14.3986 19.2539 13.7577 19.9573 13.3796 20.7801C13.0015 21.6029 12.9031 22.5082 13.0968 23.3814C13.2906 24.2545 13.7679 25.0563 14.4682 25.6853C15.1685 26.3143 16.0604 26.7421 17.0309 26.9147C18.0015 27.0872 19.0072 26.9968 19.9206 26.6548C20.8341 26.3127 21.6143 25.7345 22.1624 24.9932C22.7106 24.252 23.0021 23.381 23 22.4906C22.9972 21.2988 22.4692 20.1566 21.5318 19.3147C20.5945 18.4728 19.3243 18 18 18Z" fill="white"/>
<path d="M14 42V38.5401L20.9495 31.6202L23.5605 34.2102C23.9177 34.5645 24.4014 34.7635 24.9057 34.7635C25.4099 34.7635 25.8936 34.5645 26.2509 34.2102L37.6182 23L47 32.3319V41.9802L14 42Z" fill="white"/>
<path d="M37.6496 24.4288L46.0114 32.7221V41.0253H14.99V39.0507L20.9557 33.1269L22.8647 35.0225C23.1343 35.2903 23.4544 35.5027 23.8066 35.6476C24.1589 35.7926 24.5365 35.8672 24.9178 35.8672C25.2992 35.8672 25.6768 35.7926 26.0291 35.6476C26.3813 35.5027 26.7014 35.2903 26.971 35.0225L37.6496 24.4288ZM37.6496 22.0197C37.4071 22.02 37.1746 22.1159 37.0033 22.2863L25.579 33.5811C25.4075 33.7511 25.1751 33.8466 24.9328 33.8466C24.6904 33.8466 24.458 33.7511 24.2865 33.5811L21.6218 30.9351C21.4503 30.7651 21.2179 30.6696 20.9755 30.6696C20.7332 30.6696 20.5008 30.7651 20.3293 30.9351L13.2599 37.9449C13.1781 38.0248 13.1131 38.1201 13.0687 38.2252C13.0244 38.3303 13.0015 38.4431 13.0014 38.5571V42.0916C12.9946 42.2093 13.0122 42.3272 13.0533 42.4378C13.0943 42.5485 13.1578 42.6496 13.2399 42.7348C13.322 42.82 13.4209 42.8875 13.5304 42.9331C13.6399 42.9787 13.7577 43.0015 13.8764 42.9999H47.135C47.3644 42.9999 47.5844 42.9094 47.7466 42.7483C47.9089 42.5873 48 42.3688 48 42.141V32.2679C48 32.154 47.9771 32.0412 47.9327 31.9361C47.8883 31.831 47.8233 31.7357 47.7415 31.6558L38.2959 22.2666C38.1245 22.0962 37.8921 22.0003 37.6496 22V22.0197Z" fill="white"/>
</svg>
