<svg width="61" height="60" viewBox="0 0 61 60" fill="none" xmlns="http://www.w3.org/2000/svg">
<path d="M21.4 59H9.7C9.00004 59 8.5 58.5 8.5 57.9V51H22.5V57.9C22.4999 58.5 22 59 21.4 59Z" fill="#292D32"/>
<path d="M8.5 45H22.4999V15H8.5V45Z" fill="#292D32"/>
<path d="M22.4999 9.00004H8.5V2.10004C8.5 1.50004 9.00004 1 9.7 1H21.4C22 1 22.5 1.50004 22.5 2.10004L22.4999 9.00004Z" fill="#292D32"/>
<path d="M11.5 57.9V51H8.5V57.9C8.5 58.5 9.00004 59 9.7 59H12.7C11.9999 59 11.5 58.5 11.5 57.9Z" fill="white"/>
<path d="M8.5 45H11.5V15H8.5V45Z" fill="white"/>
<path d="M12.7 1H9.7C9.00004 1 8.5 1.50004 8.5 2.10004V9.00004H11.5V2.10004C11.5 1.50004 11.9999 1 12.7 1Z" fill="white"/>
<path d="M52.6 1H42.5C41.9 1 41.5 1.39996 41.5 1.9V7H53.5V1.9C53.5 1.40008 53.0999 1 52.6 1Z" fill="#292D32"/>
<path d="M38.5 7.9V12C38.5 12.5001 38.9 12.9 39.4 12.9H55.5C56.0001 12.9 56.4 12.5001 56.4 12V7.9C56.5 7.39996 56.1 7 55.6 7H39.5C38.9 7 38.5 7.40008 38.5 7.9Z" fill="#292D32"/>
<path d="M52.6016 1H49.6016C50.1016 1 50.5016 1.39996 50.5016 1.9V7H53.5016V1.9C53.5016 1.40008 53.1015 1 52.6016 1Z" fill="#292D32"/>
<path d="M55.6016 7H52.6016C53.1016 7 53.5016 7.39996 53.5016 7.9V12C53.5016 12.5001 53.1016 12.9 52.6016 12.9H55.6016C56.1016 12.9 56.5016 12.5001 56.5016 12V7.9C56.5016 7.40008 56.1015 7 55.6016 7Z" fill="#292D32"/>
<path d="M41.5016 13C41.0015 19.2 35.8016 24 29.6015 24H22.6016V36H29.6015C42.5015 36 53.0015 25.8 53.5016 13H41.5016Z" fill="#292D32"/>
<path d="M51.4016 13C49.9016 24.8 39.8015 34 27.6016 34H22.6016V36H29.6015C42.5015 36 53.0015 25.8 53.5016 13H51.4016Z" fill="white"/>
<path d="M25.4 15H5.7C5.00004 15 4.5 14.5 4.5 13.9V10.1C4.5 9.50004 5.00004 9 5.7 9H25.4C26 9 26.5001 9.50004 26.5001 10.1V13.8C26.5001 14.5 26 15 25.4 15Z" fill="#292D32"/>
<path d="M25.3984 9H22.3984C22.9984 9 23.4985 9.50004 23.4985 10.1V13.8C23.4985 14.4 22.9984 14.9 22.3984 14.9H25.3984C25.9984 14.9 26.4985 14.4 26.4985 13.8V10.1C26.4985 9.50004 25.9984 9 25.3984 9Z" fill="#292D32"/>
<path d="M5.7 9H8.7C8.00004 9 7.5 9.50004 7.5 10.1V13.8C7.5 14.5 8.00004 15 8.7 15H5.7C5.00004 15 4.5 14.5 4.5 13.9V10.1C4.5 9.50004 5.00004 9 5.7 9Z" fill="white"/>
<path d="M25.4 51H5.7C5.00004 51 4.5 50.5 4.5 49.9V46.2C4.5 45.5 5.00004 45 5.7 45H25.4C26 45 26.5001 45.5 26.5001 46.1V49.8C26.5001 50.5 26 51 25.4 51Z" fill="#292D32"/>
<path d="M25.3984 45H22.3984C22.9984 45 23.4985 45.5 23.4985 46.1V49.8C23.4985 50.4 22.9984 50.9 22.3984 50.9H25.3984C25.9984 50.9 26.4985 50.4 26.4985 49.8V46.1C26.4985 45.5 25.9984 45 25.3984 45Z" fill="#292D32"/>
<path d="M5.7 45H8.7C8.00004 45 7.5 45.5 7.5 46.1V49.8C7.5 50.5 8.00004 51 8.7 51H5.7C5.00004 51 4.5 50.5 4.5 49.9V46.2C4.5 45.5 5.00004 45 5.7 45Z" fill="white"/>
<path d="M21.4 60H9.69996C8.49996 60 7.5 59 7.5 57.9V51C7.5 50.4 7.89996 50 8.49996 50H22.5C23.1 50 23.5 50.4 23.5 51V57.9C23.5 59 22.6 60 21.4 60ZM9.49992 51.9999V57.9C9.49992 57.9 9.59988 57.9999 9.69996 57.9999H21.4C21.4999 57.9999 21.4999 57.9 21.4999 57.9V51.9999H9.49992Z" fill="#292D32"/>
<path d="M22.4999 45.9999H8.49996C7.89996 45.9999 7.5 45.6 7.5 45V15C7.5 14.4 7.89996 14 8.49996 14H22.5C23.1 14 23.5 14.4 23.5 15V45C23.5 45.6 23.0999 45.9999 22.4999 45.9999ZM9.49992 44H21.4999V15.9999H9.49992V44Z" fill="#292D32"/>
<path d="M22.4999 9.99996H8.49996C7.99992 9.99996 7.5 9.6 7.5 9V2.1C7.49988 0.999961 8.49996 0 9.69996 0H21.4C22.6 0 23.5 0.999961 23.5 2.1V9C23.5 9.6 23.0999 9.99996 22.4999 9.99996ZM9.49992 8.00004H21.4999V2.1C21.4999 2.1 21.4999 2.00004 21.4 2.00004H9.69996C9.6 2.00004 9.49992 2.1 9.49992 2.1V8.00004Z" fill="#292D32"/>
<path d="M25.4 15.9999H5.69996C4.49996 15.9999 3.5 15 3.5 13.8999V10.1C3.5 8.99996 4.49996 8 5.69996 8H25.4C26.6 8 27.5 8.99996 27.5 10.1V13.8C27.5 15 26.6 15.9999 25.4 15.9999ZM5.69996 9.99992C5.6 9.99992 5.49992 10.0999 5.49992 10.0999V13.7998C5.49992 13.8998 5.59988 13.9999 5.69996 13.9999H25.4C25.5 13.9999 25.5 13.8999 25.5 13.8999V10.1C25.5 10.1 25.5 10 25.4 10L5.69996 9.99992Z" fill="#292D32"/>
<path d="M25.4 51.9999H5.69996C4.49996 51.9999 3.5 51 3.5 49.8999V46.2C3.5 45 4.49996 44 5.69996 44H25.4C26.6 44 27.5 45 27.5 46.1V49.8C27.5 51 26.6 51.9999 25.4 51.9999ZM5.69996 45.9999C5.6 45.9999 5.49992 46.0999 5.49992 46.0999V49.7998C5.49992 49.8998 5.59988 49.9999 5.69996 49.9999H25.4C25.5 49.9999 25.5 49.8999 25.5 49.8999V46.2C25.5 46.1 25.4 46.1 25.4 46.1H5.69996V45.9999Z" fill="#292D32"/>
<path d="M54.5 8.00004H40.5V1.89996C40.5 0.9 41.4 0 42.5 0H52.6001C53.7001 0 54.5 0.9 54.5 1.89996V8.00004ZM42.5 6H52.5V1.89996L42.5 2.00004V6Z" fill="#292D32"/>
<path d="M55.6014 14H39.5013C38.4013 14 37.6014 13.1 37.6014 12.1001V7.90008C37.5013 6.9 38.4013 6 39.5013 6H55.6014C56.7014 6 57.5013 6.9 57.5013 7.89996V12C57.5013 13.1 56.7013 14 55.6014 14ZM55.5013 7.89996L39.5013 8.00004L39.6013 12.1001L55.5013 12.0001V7.89996Z" fill="#292D32"/>
<path d="M29.5 37H21.5V23H29.5C35.2 23 40 18.6 40.5001 12.9L40.6 12H54.6001V13C53.9 26.5 43 37 29.5 37ZM23.5 35H29.5C41.5 35 51.4 25.9001 52.4 14H42.4C41.4001 20.2001 36.0001 25.0001 29.6 25.0001H23.6V35H23.5Z" fill="#292D32"/>
</svg>
