<svg width="60" height="60" viewBox="0 0 60 60" fill="none" xmlns="http://www.w3.org/2000/svg">
<mask id="path-1-outside-1_4395_31279" maskUnits="userSpaceOnUse" x="6" y="2" width="46" height="56" fill="black">
<rect fill="white" x="6" y="2" width="46" height="56"/>
<path d="M12.3333 43.8889V55ZM45.6667 43.8889V55ZM19 21.6667V32.7778ZM39 21.6667V32.7778ZM45.6667 18.8889V7.77778C45.6667 7.04107 45.3155 6.33453 44.6904 5.81359C44.0652 5.29266 43.2174 5 42.3333 5H15.6667C14.7826 5 13.9348 5.29266 13.3096 5.81359C12.6845 6.33453 12.3333 7.04107 12.3333 7.77778V18.8889C12.3333 19.6256 12.6845 20.3321 13.3096 20.8531C13.9348 21.374 14.7826 21.6667 15.6667 21.6667H42.3333C43.2174 21.6667 44.0652 21.374 44.6904 20.8531C45.3155 20.3321 45.6667 19.6256 45.6667 18.8889ZM49 35.5556C49 34.8188 48.6488 34.1123 48.0237 33.5914C47.3986 33.0704 46.5507 32.7778 45.6667 32.7778H12.3333C11.4493 32.7778 10.6014 33.0704 9.97631 33.5914C9.35119 34.1123 9 34.8188 9 35.5556V43.8889H49V35.5556Z"/>
</mask>
<path d="M12.3333 43.8889V55ZM45.6667 43.8889V55ZM19 21.6667V32.7778ZM39 21.6667V32.7778ZM45.6667 18.8889V7.77778C45.6667 7.04107 45.3155 6.33453 44.6904 5.81359C44.0652 5.29266 43.2174 5 42.3333 5H15.6667C14.7826 5 13.9348 5.29266 13.3096 5.81359C12.6845 6.33453 12.3333 7.04107 12.3333 7.77778V18.8889C12.3333 19.6256 12.6845 20.3321 13.3096 20.8531C13.9348 21.374 14.7826 21.6667 15.6667 21.6667H42.3333C43.2174 21.6667 44.0652 21.374 44.6904 20.8531C45.3155 20.3321 45.6667 19.6256 45.6667 18.8889ZM49 35.5556C49 34.8188 48.6488 34.1123 48.0237 33.5914C47.3986 33.0704 46.5507 32.7778 45.6667 32.7778H12.3333C11.4493 32.7778 10.6014 33.0704 9.97631 33.5914C9.35119 34.1123 9 34.8188 9 35.5556V43.8889H49V35.5556Z" fill="#292D32"/>
<path d="M15.3333 43.8889C15.3333 42.232 13.9902 40.8889 12.3333 40.8889C10.6765 40.8889 9.33333 42.232 9.33333 43.8889H15.3333ZM9.33333 55C9.33333 56.6569 10.6765 58 12.3333 58C13.9902 58 15.3333 56.6569 15.3333 55H9.33333ZM48.6667 43.8889C48.6667 42.232 47.3235 40.8889 45.6667 40.8889C44.0098 40.8889 42.6667 42.232 42.6667 43.8889H48.6667ZM42.6667 55C42.6667 56.6569 44.0098 58 45.6667 58C47.3235 58 48.6667 56.6569 48.6667 55H42.6667ZM22 21.6667C22 20.0098 20.6569 18.6667 19 18.6667C17.3431 18.6667 16 20.0098 16 21.6667H22ZM16 32.7778C16 34.4346 17.3431 35.7778 19 35.7778C20.6569 35.7778 22 34.4346 22 32.7778H16ZM42 21.6667C42 20.0098 40.6569 18.6667 39 18.6667C37.3431 18.6667 36 20.0098 36 21.6667H42ZM36 32.7778C36 34.4346 37.3431 35.7778 39 35.7778C40.6569 35.7778 42 34.4346 42 32.7778H36ZM42.3333 5V2V5ZM15.6667 5L15.6667 2L15.6667 5ZM9 43.8889H6C6 45.5457 7.34315 46.8889 9 46.8889V43.8889ZM49 43.8889V46.8889C50.6569 46.8889 52 45.5457 52 43.8889H49ZM9.33333 43.8889V55H15.3333V43.8889H9.33333ZM42.6667 43.8889V55H48.6667V43.8889H42.6667ZM16 21.6667V32.7778H22V21.6667H16ZM36 21.6667V32.7778H42V21.6667H36ZM48.6667 18.8889V7.77778H42.6667V18.8889H48.6667ZM48.6667 7.77778C48.6667 6.05055 47.8391 4.53245 46.6109 3.50893L42.7698 8.11826C42.7823 8.12864 42.7569 8.11127 42.7265 8.05007C42.695 7.98675 42.6667 7.89219 42.6667 7.77778H48.6667ZM46.6109 3.50893C45.3986 2.49871 43.8541 2 42.3333 2L42.3333 8C42.5807 8 42.7318 8.0866 42.7698 8.11826L46.6109 3.50893ZM42.3333 2H15.6667V8H42.3333V2ZM15.6667 2C14.1459 2 12.6014 2.49871 11.3891 3.50893L15.2302 8.11826C15.2682 8.0866 15.4193 8 15.6667 8L15.6667 2ZM11.3891 3.50893C10.1609 4.53244 9.33333 6.05054 9.33333 7.77778H15.3333C15.3333 7.8922 15.305 7.98676 15.2735 8.05008C15.2431 8.11127 15.2177 8.12864 15.2302 8.11826L11.3891 3.50893ZM9.33333 7.77778V18.8889H15.3333V7.77778H9.33333ZM9.33333 18.8889C9.33333 20.6161 10.1609 22.1342 11.3891 23.1577L15.2302 18.5484C15.2177 18.538 15.2431 18.5554 15.2735 18.6166C15.305 18.6799 15.3333 18.7745 15.3333 18.8889H9.33333ZM11.3891 23.1577C12.6013 24.168 14.1459 24.6667 15.6667 24.6667V18.6667C15.4193 18.6667 15.2682 18.5801 15.2302 18.5484L11.3891 23.1577ZM15.6667 24.6667H42.3333V18.6667H15.6667V24.6667ZM42.3333 24.6667C43.8541 24.6667 45.3987 24.168 46.6109 23.1577L42.7698 18.5484C42.7318 18.5801 42.5807 18.6667 42.3333 18.6667V24.6667ZM46.6109 23.1577C47.8391 22.1342 48.6667 20.6161 48.6667 18.8889H42.6667C42.6667 18.7745 42.695 18.6799 42.7265 18.6166C42.7569 18.5554 42.7823 18.538 42.7698 18.5484L46.6109 23.1577ZM52 35.5556C52 33.8283 51.1725 32.3102 49.9442 31.2867L46.1031 35.896C46.1156 35.9064 46.0902 35.889 46.0598 35.8279C46.0284 35.7645 46 35.67 46 35.5556H52ZM49.9442 31.2867C48.732 30.2765 47.1874 29.7778 45.6667 29.7778V35.7778C45.914 35.7778 46.0652 35.8644 46.1031 35.896L49.9442 31.2867ZM45.6667 29.7778H12.3333V35.7778H45.6667V29.7778ZM12.3333 29.7778C10.8126 29.7778 9.26802 30.2765 8.05576 31.2867L11.8969 35.896C11.9348 35.8644 12.086 35.7778 12.3333 35.7778V29.7778ZM8.05576 31.2867C6.82754 32.3102 6 33.8283 6 35.5556H12C12 35.67 11.9716 35.7645 11.9402 35.8279C11.9098 35.889 11.8844 35.9064 11.8969 35.896L8.05576 31.2867ZM6 35.5556V43.8889H12V35.5556H6ZM9 46.8889H49V40.8889H9V46.8889ZM52 43.8889V35.5556H46V43.8889H52Z" fill="#292D32" mask="url(#path-1-outside-1_4395_31279)"/>
<path d="M12.3333 32.7773H45.6667C46.5507 32.7773 47.3986 33.07 48.0237 33.5909C48.6488 34.1119 49 34.8184 49 35.5551V43.8885H9V35.5551C9 34.8184 9.35119 34.1119 9.97631 33.5909C10.6014 33.07 11.4493 32.7773 12.3333 32.7773Z" fill="white"/>
</svg>
