<svg width="61" height="60" viewBox="0 0 61 60" fill="none" xmlns="http://www.w3.org/2000/svg">
<path d="M52.5747 27.8381C52.9913 27.8381 53.3291 27.5001 53.3291 27.0831C53.3291 26.6661 52.9913 26.3281 52.5747 26.3281C52.1581 26.3281 51.8203 26.6661 51.8203 27.0831C51.8203 27.5001 52.1581 27.8381 52.5747 27.8381Z" fill="#292D32"/>
<path d="M35.977 12.7385C36.3937 12.7385 36.7314 12.4005 36.7314 11.9835C36.7314 11.5665 36.3937 11.2285 35.977 11.2285C35.5604 11.2285 35.2227 11.5665 35.2227 11.9835C35.2227 12.4005 35.5604 12.7385 35.977 12.7385Z" fill="#292D32"/>
<path d="M51.8169 34.635C52.2335 34.635 52.5713 34.297 52.5713 33.88C52.5713 33.463 52.2335 33.125 51.8169 33.125C51.4002 33.125 51.0625 33.463 51.0625 33.88C51.0625 34.297 51.4002 34.635 51.8169 34.635Z" fill="#292D32"/>
<path d="M11.832 8.55859V9.62691" stroke="#292D32" stroke-width="1.875" stroke-linecap="round" stroke-linejoin="round"/>
<path d="M11.832 12.8301V13.8984" stroke="#292D32" stroke-width="1.875" stroke-linecap="round" stroke-linejoin="round"/>
<path d="M9.16797 11.2285H10.2354" stroke="#292D32" stroke-width="1.875" stroke-linecap="round" stroke-linejoin="round"/>
<path d="M13.4375 11.2285H14.5049" stroke="#292D32" stroke-width="1.875" stroke-linecap="round" stroke-linejoin="round"/>
<path d="M15.4928 21.7973H12.5938V18.7773H15.4219" fill="white"/>
<path d="M15.4928 21.7973H12.5938V18.7773H15.4219" stroke="#292D32" stroke-width="1.875" stroke-linecap="round" stroke-linejoin="round"/>
<path d="M47.4973 18.7773H50.3066V21.7973H47.2891" fill="white"/>
<path d="M47.4973 18.7773H50.3066V21.7973H47.2891" stroke="#292D32" stroke-width="1.875" stroke-linecap="round" stroke-linejoin="round"/>
<path d="M19.3788 24.0645H43.5188L49.5538 41.4294V48.9794H13.3438V41.4294L18.0669 27.8394" fill="#292D32"/>
<path d="M19.3788 24.0645H43.5188L49.5538 41.4294V48.9794H13.3438V41.4294L18.0669 27.8394" stroke="#292D32" stroke-width="1.875" stroke-linecap="round" stroke-linejoin="round"/>
<path d="M16.3672 41.4297H21.6478" stroke="white" stroke-width="1.875" stroke-linecap="round" stroke-linejoin="round"/>
<path d="M24.6641 41.4297H27.6816" stroke="white" stroke-width="1.875" stroke-linecap="round" stroke-linejoin="round"/>
<path d="M30.6953 41.4297H46.5372" stroke="white" stroke-width="1.875" stroke-linecap="round" stroke-linejoin="round"/>
<path d="M14.8555 51.9985V48.9785" stroke="#292D32" stroke-width="1.875" stroke-linecap="round" stroke-linejoin="round"/>
<path d="M17.8672 51.9985V48.9785" stroke="#292D32" stroke-width="1.875" stroke-linecap="round" stroke-linejoin="round"/>
<path d="M20.8906 51.9985V48.9785" stroke="#292D32" stroke-width="1.875" stroke-linecap="round" stroke-linejoin="round"/>
<path d="M23.9023 51.9985V48.9785" stroke="#292D32" stroke-width="1.875" stroke-linecap="round" stroke-linejoin="round"/>
<path d="M26.9258 51.9985V48.9785" stroke="#292D32" stroke-width="1.875" stroke-linecap="round" stroke-linejoin="round"/>
<path d="M29.9414 51.9985V48.9785" stroke="#292D32" stroke-width="1.875" stroke-linecap="round" stroke-linejoin="round"/>
<path d="M32.9609 51.9985V48.9785" stroke="#292D32" stroke-width="1.875" stroke-linecap="round" stroke-linejoin="round"/>
<path d="M35.9766 51.9985V48.9785" stroke="#292D32" stroke-width="1.875" stroke-linecap="round" stroke-linejoin="round"/>
<path d="M38.9922 51.9985V48.9785" stroke="#292D32" stroke-width="1.875" stroke-linecap="round" stroke-linejoin="round"/>
<path d="M42.0117 51.9985V48.9785" stroke="#292D32" stroke-width="1.875" stroke-linecap="round" stroke-linejoin="round"/>
<path d="M45.0273 51.9985V48.9785" stroke="#292D32" stroke-width="1.875" stroke-linecap="round" stroke-linejoin="round"/>
<path d="M48.0469 51.9985V48.9785" stroke="#292D32" stroke-width="1.875" stroke-linecap="round" stroke-linejoin="round"/>
<path d="M28.4336 30.1048L30.6967 27.8398L32.9598 30.1048" stroke="white" stroke-width="1.875" stroke-linecap="round" stroke-linejoin="round"/>
<path d="M32.9609 30.1048L35.2241 27.8398L37.4872 30.1048" stroke="white" stroke-width="1.875" stroke-linecap="round" stroke-linejoin="round"/>
<path d="M37.4844 30.1048L39.7475 27.8398L42.0106 30.1048" stroke="white" stroke-width="1.875" stroke-linecap="round" stroke-linejoin="round"/>
<path d="M18.6289 36.8998L20.892 34.6348L23.1552 36.8998" stroke="white" stroke-width="1.875" stroke-linecap="round" stroke-linejoin="round"/>
<path d="M23.1523 36.8998L25.4155 34.6348L27.6786 36.8998" stroke="white" stroke-width="1.875" stroke-linecap="round" stroke-linejoin="round"/>
<path d="M27.6758 36.8998L29.9389 34.6348L32.202 36.8998" stroke="white" stroke-width="1.875" stroke-linecap="round" stroke-linejoin="round"/>
<path d="M45.7805 15.7598H17.1142C16.2806 15.7598 15.6055 17.6186 15.6055 19.9123C15.6055 22.2059 16.2844 24.0647 17.1142 24.0647H45.7805C46.6103 24.0647 47.2893 22.2059 47.2893 19.9123C47.2893 17.6186 46.6141 15.7598 45.7805 15.7598Z" fill="white" stroke="#292D32" stroke-width="1.875" stroke-linecap="round" stroke-linejoin="round"/>
</svg>
