<svg width="60" height="61" viewBox="0 0 60 61" fill="none" xmlns="http://www.w3.org/2000/svg">
<path d="M29.949 39.9534H6.9872L3.99219 26.975L7.9855 16.9917H24.6578C25.4565 16.9917 26.1553 16.4925 26.4548 15.7937L27.9523 12H33.9423L29.949 39.9534Z" fill="#292D32"/>
<path d="M7.98843 16.9922H4.99342L1 26.9755L3.99501 39.9539H6.99002L3.99501 26.9755L7.98843 16.9922Z" fill="#292D32"/>
<path d="M26.4558 15.7938L27.9534 12H33.9434L28.9517 6.01002L21.9633 5.01172L18.9683 8.00673L15.9733 10.0034L9.98329 9.00514L6.98828 16.9919H24.6588C25.4575 16.9918 26.1563 16.4926 26.4558 15.7938Z" fill="#292D32"/>
<path d="M55.3079 26.277L46.6223 16.6929C46.223 16.2936 48.5191 15.9941 47.9201 15.9941H38.7354C37.7371 15.9941 36.9384 16.7928 36.9384 17.7911V39.9542H6.98828V48.54C6.98828 49.3387 7.58728 49.9377 8.38599 49.9377H9.98329C9.98329 46.6432 9.68379 43.9476 12.9783 43.9476C16.2728 43.9476 18.9683 46.6432 18.9683 49.9377H36.9384H41.9301C41.9301 46.6432 44.6256 43.9476 47.9201 43.9476C51.2146 43.9476 52.9118 46.6432 52.9118 49.9377H54.5091C55.3079 49.9377 55.9069 49.3387 55.9069 48.54V27.8743C55.9069 27.2753 55.7072 26.7761 55.3079 26.277Z" fill="#292D32"/>
<path d="M6.9872 48.5389V39.9531H3.99219V48.5389C3.99219 49.3376 4.59119 49.9366 5.3899 49.9366H6.9872C6.9872 49.6371 6.9872 49.3376 7.08699 48.9383C6.9872 48.8384 6.9872 48.6387 6.9872 48.5389Z" fill="white"/>
<path d="M58.3048 26.2773L49.6193 16.6932C49.22 16.194 48.621 15.9944 48.022 15.8945C48.022 15.9943 46.225 16.194 46.6243 16.6932L55.3098 26.2773C55.7091 26.6766 55.9088 27.2756 55.9088 27.8746V48.5401C55.9088 49.3388 55.3098 49.9379 54.5111 49.9379H57.5061C58.3048 49.9379 58.9038 49.3388 58.9038 48.5401V27.8746C58.9038 27.2756 58.7041 26.6766 58.3048 26.2773Z" fill="white"/>
<path d="M49.6186 20.785C49.2193 20.2858 45.5254 19.9863 44.9263 19.9863H42.73C42.3308 19.9863 42.0312 20.2858 42.0312 20.6851V31.2675C42.0312 31.6668 42.3308 31.9663 42.73 31.9663H58.9031V31.8665C58.9031 31.2675 58.7034 30.7682 58.3041 30.2692L49.6186 20.785Z" fill="#292D32"/>
<path d="M59.202 27.9731L52.613 20.785C52.2137 20.2858 51.5148 19.9863 50.9158 19.9863H44.9258C45.6246 19.9863 49.2186 20.2858 49.618 20.785L58.3035 30.3691C58.7028 30.7684 58.9025 31.3674 58.9025 31.9664L59.202 27.9731Z" fill="white"/>
<path d="M50.9147 49.9373C50.9147 53.2318 48.918 55.9273 46.4222 55.9273C43.9264 55.9273 41.9297 53.2318 41.9297 49.9373C41.9297 46.6428 43.9264 43.9473 46.4222 43.9473C48.918 43.9473 50.9147 46.6428 50.9147 49.9373Z" fill="#292D32"/>
<path d="M47.9219 43.9473C47.6224 43.9473 47.3229 43.9473 47.0234 44.0471C49.2197 44.4464 50.917 46.9423 50.917 49.9373C50.917 52.9323 49.2197 55.4281 47.0234 55.8275C47.3229 55.8275 47.6224 55.9273 47.9219 55.9273C51.2165 55.9273 53.912 53.2318 53.912 49.9373C53.912 46.6428 51.2165 43.9473 47.9219 43.9473Z" fill="#292D32"/>
<path d="M15.9733 49.9373C15.9733 53.2318 13.9766 55.9273 11.4808 55.9273C8.98499 55.9273 6.98828 53.2318 6.98828 49.9373C6.98828 46.6428 8.98499 43.9473 11.4808 43.9473C13.9766 43.9473 15.9733 46.6428 15.9733 49.9373Z" fill="#292D32"/>
<path d="M12.9766 43.9473C12.6771 43.9473 12.3776 43.9473 12.0781 44.0471C14.2744 44.4464 15.9716 46.9423 15.9716 49.9373C15.9716 52.9323 14.2744 55.4281 12.0781 55.8275C12.3776 55.8275 12.6771 55.9273 12.9766 55.9273C16.2711 55.9273 18.9666 53.2318 18.9666 49.9373C18.9666 46.6428 16.2711 43.9473 12.9766 43.9473Z" fill="#292D32"/>
<path d="M29.9501 40.9521H3.99331C3.4941 40.9521 3.0948 40.6526 2.99501 40.1533L0 27.175C0 26.9753 0 26.7757 0 26.576L3.99331 16.5927C4.19301 16.1934 4.59231 15.9937 4.99161 15.9937H24.6589C25.0582 15.9937 25.3577 15.794 25.5574 15.3947L27.0549 11.601C27.1547 11.2017 27.5541 11.002 27.9534 11.002H33.9434C34.2429 11.002 34.5424 11.1017 34.7421 11.3015C34.8419 11.601 34.9418 11.9005 34.9418 12.1002L30.9485 40.0535C30.8486 40.5526 30.4493 40.9521 29.9501 40.9521ZM4.79202 38.9553H29.0516L32.7454 12.9985H28.5524L27.2546 16.1933C26.9551 17.2915 25.8569 17.9903 24.6589 17.9903H5.69052L1.99671 27.0751L4.79202 38.9553Z" fill="#292D32"/>
<path d="M59.9021 32.965H42.6308C41.7323 32.965 40.9336 32.1663 40.9336 31.2678V20.6855C40.9336 19.787 41.7323 18.9883 42.6308 18.9883H53.0135L59.0036 25.6771C59.6026 26.2761 59.9021 27.0748 59.9021 27.9733V32.965ZM42.9303 30.9683H57.9054V27.8735C57.9054 27.574 57.8056 27.1747 57.5061 26.975L52.0152 20.985H42.9304L42.9303 30.9683Z" fill="white"/>
<path d="M47.9219 56.9259C44.0284 56.9259 40.9336 53.8311 40.9336 49.9375C40.9336 46.044 44.0284 42.9492 47.9219 42.9492C51.8154 42.9492 54.9102 46.044 54.9102 49.9375C54.9102 53.8311 51.8154 56.9259 47.9219 56.9259ZM47.9219 44.9458C45.1266 44.9458 42.9302 47.1421 42.9302 49.9375C42.9302 52.7328 45.1265 54.9293 47.9219 54.9293C50.7172 54.9293 52.9136 52.733 52.9136 49.9375C52.9136 47.1421 50.7172 44.9458 47.9219 44.9458Z" fill="#292D32"/>
<path d="M12.9766 56.9259C9.08309 56.9259 5.98828 53.8311 5.98828 49.9375C5.98828 46.044 9.08309 42.9492 12.9766 42.9492C16.8701 42.9492 19.9649 46.044 19.9649 49.9375C19.9649 53.8311 16.8701 56.9259 12.9766 56.9259ZM12.9766 44.9458C10.1813 44.9458 7.98488 47.1421 7.98488 49.9375C7.98488 52.7328 10.1812 54.9293 12.9766 54.9293C15.772 54.9293 17.9683 52.7328 17.9683 49.9375C17.9683 47.1421 15.772 44.9458 12.9766 44.9458Z" fill="#292D32"/>
<path d="M58.9024 39.9536H52.9124C52.3134 39.9536 51.9141 39.5543 51.9141 38.9553C51.9141 38.3563 52.3134 37.957 52.9124 37.957H58.9024C59.5014 37.957 59.9007 38.3563 59.9007 38.9553C59.9007 39.5543 59.5014 39.9536 58.9024 39.9536Z" fill="white"/>
<path d="M17.9694 30.9693H2.99439C2.39539 30.9693 1.99609 30.57 1.99609 29.971C1.99609 29.372 2.39539 28.9727 2.99439 28.9727H17.9694C18.5684 28.9727 18.9677 29.372 18.9677 29.971C18.9677 30.57 18.5684 30.9693 17.9694 30.9693Z" fill="white"/>
<path d="M12.9799 25.9771H1.9983C1.3993 25.9771 1 25.5778 1 24.9788C1 24.3798 1.3993 23.9805 1.9983 23.9805H12.98C13.579 23.9805 13.9783 24.3798 13.9783 24.9788C13.9783 25.5777 13.5789 25.9771 12.9799 25.9771Z" fill="white"/>
<path d="M57.5053 50.9364H52.913V49.9381C52.913 47.1428 50.7167 44.9464 47.9212 44.9464C45.1259 44.9464 42.9295 47.1427 42.9295 49.9381V50.9364H17.9711V49.9381C17.9711 47.1428 15.7748 44.9464 12.9794 44.9464C10.184 44.9464 7.9877 47.1427 7.9877 49.9381V50.9364H5.3921C4.0943 50.9364 2.99609 49.8382 2.99609 48.5404V38.9564H35.9412V17.6918C35.9412 16.1943 37.1392 14.8965 38.7365 14.8965H47.9212C48.8197 14.8965 49.7183 15.2958 50.4171 15.9947L59.1026 25.5787C59.7016 26.1777 60.0011 26.9764 60.0011 27.8749V48.5405C59.9013 49.8382 58.8031 50.9364 57.5053 50.9364ZM54.8098 48.9397H57.5053C57.705 48.9397 57.9046 48.74 57.9046 48.5404V27.8748C57.9046 27.5753 57.8048 27.176 57.5053 26.9763L48.9195 17.3923C48.62 17.0928 48.3205 16.993 47.9212 16.993H38.7365C38.3372 16.993 37.9378 17.2925 37.9378 17.7917V40.9531H4.99269V48.5404C4.99269 48.7401 5.1924 48.9397 5.39198 48.9397H6.09078C6.58999 45.5454 9.48509 42.9497 12.9793 42.9497C16.4735 42.9497 19.3686 45.5454 19.8678 48.9397H40.9327C41.4319 45.5454 44.327 42.9497 47.8212 42.9497C51.3154 42.9497 54.3106 45.5454 54.8098 48.9397Z" fill="#292D32"/>
<path d="M14.9739 49.9381C14.9739 51.0363 14.0754 51.9348 12.9772 51.9348C11.879 51.9348 10.9805 51.0363 10.9805 49.9381C10.9805 48.8399 11.879 47.9414 12.9772 47.9414C14.0754 47.9414 14.9739 48.8399 14.9739 49.9381Z" fill="white"/>
<path d="M49.9153 49.9381C49.9153 51.0363 49.0168 51.9348 47.9186 51.9348C46.8204 51.9348 45.9219 51.0363 45.9219 49.9381C45.9219 48.8399 46.8204 47.9414 47.9186 47.9414C49.0168 47.9414 49.9153 48.8399 49.9153 49.9381Z" fill="white"/>
<path d="M43.9254 12.9985H32.9436C32.3446 12.9985 31.9453 12.5993 31.9453 12.0003C31.9453 11.4012 32.3446 11.002 32.9436 11.002H43.9254C44.5244 11.002 44.9237 11.4012 44.9237 12.0003C44.9237 12.5993 44.5244 12.9985 43.9254 12.9985Z" fill="#292D32"/>
<path d="M24.6584 17.9904H6.98785C6.68835 17.9904 6.38885 17.7907 6.18914 17.5911C5.98943 17.2916 5.88964 16.9921 6.08934 16.5928L9.08435 8.6061C9.18415 8.2068 9.68336 7.9073 10.1826 8.0071L15.7733 8.9056L18.3689 7.20839L21.2641 4.31317C21.4638 4.11347 21.7633 4.01367 22.0628 4.01367L29.0511 5.01197C29.2508 5.01197 29.5503 5.21168 29.6501 5.31147L34.6419 11.3015C34.8416 11.601 34.9414 12.0003 34.7416 12.3997C34.6419 12.799 34.3424 12.9987 33.9429 12.9987H28.6517L27.3539 16.1934C26.9546 17.2916 25.8564 17.9904 24.6584 17.9904ZM8.38556 15.9937H24.5586C24.9579 15.9937 25.2574 15.794 25.4571 15.3947L26.9546 11.601C27.1543 11.2017 27.5536 11.002 27.9529 11.002H31.8464L28.4521 6.90889L22.3623 6.01038L19.7666 8.6061C19.7666 8.6061 19.6668 8.70589 19.5669 8.70589L16.5719 10.7026C16.2724 11.0021 16.0727 11.0021 15.7732 11.0021L10.5819 10.1036L8.38556 15.9937Z" fill="white"/>
</svg>
