<svg width="61" height="60" viewBox="0 0 61 60" fill="none" xmlns="http://www.w3.org/2000/svg">
<path d="M53 40L8 40V32.5C8 31.837 8.26339 31.2011 8.73223 30.7322C9.20107 30.2634 9.83696 30 10.5 30L53 30V40Z" fill="#292D32"/>
<path d="M43 30L43 15L50.5 15C51.163 15 51.7989 15.0878 52.2678 15.2441C52.7366 15.4004 53 15.6123 53 15.8333L53 30L43 30Z" fill="#292D32"/>
<path d="M50.5 15H45.5C44.837 15 44.2011 15.2634 43.7322 15.7322C43.2634 16.2011 43 16.837 43 17.5V30H53V17.5C53 16.837 52.7366 16.2011 52.2678 15.7322C51.7989 15.2634 51.163 15 50.5 15ZM10.5 40V45ZM50.5 40V45ZM10.5 30H53V40H8V32.5C8 31.837 8.26339 31.2011 8.73223 30.7322C9.20107 30.2634 9.83696 30 10.5 30Z" fill="#292D32"/>
<path d="M53 30H43V17.5C43 16.837 43.2634 16.2011 43.7322 15.7322C44.2011 15.2634 44.837 15 45.5 15H50.5C51.163 15 51.7989 15.2634 52.2678 15.7322C52.7366 16.2011 53 16.837 53 17.5V30ZM53 30H10.5C9.83696 30 9.20107 30.2634 8.73223 30.7322C8.26339 31.2011 8 31.837 8 32.5V40H53V30ZM10.5 40V45M50.5 40V45" stroke="#292D32" stroke-width="1.74" stroke-linecap="round" stroke-linejoin="round"/>
</svg>
