<svg width="335" height="66" viewBox="0 0 335 66" fill="none" xmlns="http://www.w3.org/2000/svg">
<path d="M0 28L38.8261 28V66H0L7.76522 47L0 28Z" fill="#73BDB5"/>
<path d="M38 65L20.5 47H38V65Z" fill="#2C707F"/>
<path d="M334.826 28L296 28V66H334.826L327.061 47L334.826 28Z" fill="#73BDB5"/>
<path d="M296.5 65L314 47H296.5V65Z" fill="#2C707F"/>
<rect x="26" width="288" height="46" fill="#73BDB5"/>
<path d="M77.832 29.024H69.684L68.284 33H64.952L71.924 13.512H75.62L82.592 33H79.232L77.832 29.024ZM76.936 26.42L73.772 17.376L70.58 26.42H76.936ZM88.8154 30.424H95.3954V33H85.6234V13.54H88.8154V30.424ZM101.257 30.424H107.837V33H98.0648V13.54H101.257V30.424ZM124.136 13.54C126.208 13.54 128.018 13.9413 129.568 14.744C131.136 15.528 132.34 16.6667 133.18 18.16C134.038 19.6347 134.468 21.3613 134.468 23.34C134.468 25.3187 134.038 27.036 133.18 28.492C132.34 29.948 131.136 31.068 129.568 31.852C128.018 32.6173 126.208 33 124.136 33H117.78V13.54H124.136ZM124.136 30.396C126.413 30.396 128.158 29.78 129.372 28.548C130.585 27.316 131.192 25.58 131.192 23.34C131.192 21.0813 130.585 19.3173 129.372 18.048C128.158 16.7787 126.413 16.144 124.136 16.144H120.972V30.396H124.136ZM149.363 29.024H141.215L139.815 33H136.483L143.455 13.512H147.151L154.123 33H150.763L149.363 29.024ZM148.467 26.42L145.303 17.376L142.111 26.42H148.467ZM171.575 13.54L165.135 25.944V33H161.943V25.944L155.475 13.54H159.031L163.539 23.088L168.047 13.54H171.575ZM187.737 13.54C189.809 13.54 191.62 13.9413 193.169 14.744C194.737 15.528 195.941 16.6667 196.781 18.16C197.64 19.6347 198.069 21.3613 198.069 23.34C198.069 25.3187 197.64 27.036 196.781 28.492C195.941 29.948 194.737 31.068 193.169 31.852C191.62 32.6173 189.809 33 187.737 33H181.381V13.54H187.737ZM187.737 30.396C190.015 30.396 191.76 29.78 192.973 28.548C194.187 27.316 194.793 25.58 194.793 23.34C194.793 21.0813 194.187 19.3173 192.973 18.048C191.76 16.7787 190.015 16.144 187.737 16.144H184.573V30.396H187.737ZM204.425 13.54V33H201.233V13.54H204.425ZM224.604 33H221.412L211.808 18.468V33H208.616V13.512H211.808L221.412 28.016V13.512H224.604V33ZM231.987 13.54V33H228.795V13.54H231.987ZM252.166 33H248.974L239.37 18.468V33H236.178V13.512H239.37L248.974 28.016V13.512H252.166V33ZM270.442 19.14C269.938 18.1693 269.238 17.4413 268.342 16.956C267.446 16.452 266.41 16.2 265.234 16.2C263.946 16.2 262.798 16.4893 261.79 17.068C260.782 17.6467 259.988 18.468 259.41 19.532C258.85 20.596 258.57 21.828 258.57 23.228C258.57 24.628 258.85 25.8693 259.41 26.952C259.988 28.016 260.782 28.8373 261.79 29.416C262.798 29.9947 263.946 30.284 265.234 30.284C266.97 30.284 268.379 29.7987 269.462 28.828C270.544 27.8573 271.207 26.5413 271.45 24.88H264.142V22.332H274.866V24.824C274.66 26.336 274.119 27.7267 273.242 28.996C272.383 30.2653 271.254 31.2827 269.854 32.048C268.472 32.7947 266.932 33.168 265.234 33.168C263.404 33.168 261.734 32.748 260.222 31.908C258.71 31.0493 257.506 29.864 256.61 28.352C255.732 26.84 255.294 25.132 255.294 23.228C255.294 21.324 255.732 19.616 256.61 18.104C257.506 16.592 258.71 15.416 260.222 14.576C261.752 13.7173 263.423 13.288 265.234 13.288C267.306 13.288 269.144 13.8013 270.75 14.828C272.374 15.836 273.55 17.2733 274.278 19.14H270.442Z" fill="#212121"/>
</svg>
