<svg width="335" height="66" viewBox="0 0 335 66" fill="none" xmlns="http://www.w3.org/2000/svg">
<path d="M0 28L38.8261 28V66H0L7.76522 47L0 28Z" fill="#73BDB5"/>
<path d="M38 65L20.5 47H38V65Z" fill="#2C707F"/>
<path d="M334.826 28L296 28V66H334.826L327.061 47L334.826 28Z" fill="#73BDB5"/>
<path d="M296.5 65L314 47H296.5V65Z" fill="#2C707F"/>
<rect x="26" width="288" height="46" fill="#73BDB5"/>
<path d="M105.516 23.004C106.561 23.1907 107.448 23.7413 108.176 24.656C108.904 25.5707 109.268 26.6067 109.268 27.764C109.268 28.7533 109.007 29.6493 108.484 30.452C107.98 31.236 107.243 31.8613 106.272 32.328C105.301 32.776 104.172 33 102.884 33H95.1V13.54H102.52C103.845 13.54 104.984 13.764 105.936 14.212C106.888 14.66 107.607 15.2667 108.092 16.032C108.577 16.7787 108.82 17.6187 108.82 18.552C108.82 19.672 108.521 20.6053 107.924 21.352C107.327 22.0987 106.524 22.6493 105.516 23.004ZM98.292 21.716H102.24C103.285 21.716 104.097 21.4827 104.676 21.016C105.273 20.5307 105.572 19.84 105.572 18.944C105.572 18.0667 105.273 17.3853 104.676 16.9C104.097 16.396 103.285 16.144 102.24 16.144H98.292V21.716ZM102.604 30.396C103.687 30.396 104.536 30.1347 105.152 29.612C105.768 29.0893 106.076 28.3613 106.076 27.428C106.076 26.476 105.749 25.72 105.096 25.16C104.443 24.6 103.575 24.32 102.492 24.32H98.292V30.396H102.604ZM122.845 33L118.365 25.216H115.929V33H112.737V13.54H119.457C120.95 13.54 122.21 13.8013 123.237 14.324C124.282 14.8467 125.057 15.5467 125.561 16.424C126.083 17.3013 126.345 18.2813 126.345 19.364C126.345 20.6333 125.971 21.7907 125.225 22.836C124.497 23.8627 123.367 24.5627 121.837 24.936L126.653 33H122.845ZM115.929 22.668H119.457C120.651 22.668 121.547 22.3693 122.145 21.772C122.761 21.1747 123.069 20.372 123.069 19.364C123.069 18.356 122.77 17.572 122.173 17.012C121.575 16.4333 120.67 16.144 119.457 16.144H115.929V22.668ZM133.62 16.116V21.828H140.34V24.432H133.62V30.396H141.18V33H130.428V13.512H141.18V16.116H133.62ZM156.844 29.024H148.696L147.296 33H143.964L150.936 13.512H154.632L161.604 33H158.244L156.844 29.024ZM155.948 26.42L152.784 17.376L149.592 26.42H155.948ZM175.359 33L167.827 24.292V33H164.635V13.54H167.827V22.416L175.387 13.54H179.391L170.935 23.284L179.531 33H175.359ZM193.806 13.54V16.144H185.546V21.884H191.986V24.488H185.546V33H182.354V13.54H193.806ZM208.496 29.024H200.348L198.948 33H195.616L202.588 13.512H206.284L213.256 33H209.896L208.496 29.024ZM207.6 26.42L204.436 17.376L201.244 26.42H207.6ZM222.7 33.196C221.393 33.196 220.217 32.972 219.172 32.524C218.126 32.0573 217.305 31.404 216.708 30.564C216.11 29.724 215.812 28.744 215.812 27.624H219.228C219.302 28.464 219.629 29.1547 220.208 29.696C220.805 30.2373 221.636 30.508 222.7 30.508C223.801 30.508 224.66 30.2467 225.276 29.724C225.892 29.1827 226.2 28.492 226.2 27.652C226.2 26.9987 226.004 26.4667 225.612 26.056C225.238 25.6453 224.762 25.328 224.184 25.104C223.624 24.88 222.84 24.6373 221.832 24.376C220.562 24.04 219.526 23.704 218.724 23.368C217.94 23.0133 217.268 22.472 216.708 21.744C216.148 21.016 215.868 20.0453 215.868 18.832C215.868 17.712 216.148 16.732 216.708 15.892C217.268 15.052 218.052 14.408 219.06 13.96C220.068 13.512 221.234 13.288 222.56 13.288C224.445 13.288 225.985 13.764 227.18 14.716C228.393 15.6493 229.065 16.9373 229.196 18.58H225.668C225.612 17.8707 225.276 17.264 224.66 16.76C224.044 16.256 223.232 16.004 222.224 16.004C221.309 16.004 220.562 16.2373 219.984 16.704C219.405 17.1707 219.116 17.8427 219.116 18.72C219.116 19.3173 219.293 19.812 219.648 20.204C220.021 20.5773 220.488 20.876 221.048 21.1C221.608 21.324 222.373 21.5667 223.344 21.828C224.632 22.1827 225.677 22.5373 226.48 22.892C227.301 23.2467 227.992 23.7973 228.552 24.544C229.13 25.272 229.42 26.252 229.42 27.484C229.42 28.4733 229.149 29.4067 228.608 30.284C228.085 31.1613 227.31 31.8707 226.284 32.412C225.276 32.9347 224.081 33.196 222.7 33.196ZM245.758 13.54V16.144H240.578V33H237.386V16.144H232.178V13.54H245.758Z" fill="#212121"/>
</svg>
