<svg width="335" height="66" viewBox="0 0 335 66" fill="none" xmlns="http://www.w3.org/2000/svg">
<path d="M0 28L38.8261 28V66H0L7.76522 47L0 28Z" fill="#73BDB5"/>
<path d="M38 65L20.5 47H38V65Z" fill="#2C707F"/>
<path d="M334.826 28L296 28V66H334.826L327.061 47L334.826 28Z" fill="#73BDB5"/>
<path d="M296.5 65L314 47H296.5V65Z" fill="#2C707F"/>
<rect x="26" width="288" height="46" fill="#73BDB5"/>
<path d="M128.456 13.54C130.528 13.54 132.339 13.9413 133.888 14.744C135.456 15.528 136.66 16.6667 137.5 18.16C138.359 19.6347 138.788 21.3613 138.788 23.34C138.788 25.3187 138.359 27.036 137.5 28.492C136.66 29.948 135.456 31.068 133.888 31.852C132.339 32.6173 130.528 33 128.456 33H122.1V13.54H128.456ZM128.456 30.396C130.733 30.396 132.479 29.78 133.692 28.548C134.905 27.316 135.512 25.58 135.512 23.34C135.512 21.0813 134.905 19.3173 133.692 18.048C132.479 16.7787 130.733 16.144 128.456 16.144H125.292V30.396H128.456ZM145.144 13.54V33H141.952V13.54H145.144ZM165.322 33H162.13L152.526 18.468V33H149.334V13.512H152.526L162.13 28.016V13.512H165.322V33ZM185.502 33H182.31L172.706 18.468V33H169.514V13.512H172.706L182.31 28.016V13.512H185.502V33ZM192.886 16.116V21.828H199.606V24.432H192.886V30.396H200.446V33H189.694V13.512H200.446V16.116H192.886ZM214.485 33L210.005 25.216H207.569V33H204.377V13.54H211.097C212.591 13.54 213.851 13.8013 214.877 14.324C215.923 14.8467 216.697 15.5467 217.201 16.424C217.724 17.3013 217.985 18.2813 217.985 19.364C217.985 20.6333 217.612 21.7907 216.865 22.836C216.137 23.8627 215.008 24.5627 213.477 24.936L218.293 33H214.485ZM207.569 22.668H211.097C212.292 22.668 213.188 22.3693 213.785 21.772C214.401 21.1747 214.709 20.372 214.709 19.364C214.709 18.356 214.411 17.572 213.813 17.012C213.216 16.4333 212.311 16.144 211.097 16.144H207.569V22.668Z" fill="#212121"/>
</svg>
