<svg width="61" height="60" viewBox="0 0 61 60" fill="none" xmlns="http://www.w3.org/2000/svg">
<path d="M16.2969 29.4048V42.7781H23.3202V29.4055C23.3202 29.0469 23.2496 28.6918 23.1123 28.3605C22.9751 28.0292 22.774 27.7282 22.5204 27.4746C22.2668 27.221 21.9658 27.0199 21.6345 26.8827C21.3032 26.7454 20.9481 26.6748 20.5895 26.6748H19.0282C18.6696 26.6747 18.3145 26.7453 17.9832 26.8824C17.6518 27.0196 17.3508 27.2206 17.0971 27.4741C16.8435 27.7276 16.6423 28.0286 16.505 28.3599C16.3677 28.6911 16.297 29.0462 16.2969 29.4048Z" fill="white"/>
<path d="M45.7665 29.4042V54.3522H23.3198V29.4042C23.3199 29.0456 23.2494 28.6905 23.1122 28.3592C22.9751 28.0278 22.774 27.7267 22.5205 27.4731C22.267 27.2195 21.966 27.0183 21.6348 26.881C21.3035 26.7437 20.9484 26.6729 20.5898 26.6729H43.0365C43.7607 26.6732 44.4551 26.9611 44.967 27.4733C45.4789 27.9855 45.7665 28.68 45.7665 29.4042Z" fill="#292D32"/>
<path d="M45.7665 29.4042V29.6335H23.3198V29.4042C23.3199 29.0456 23.2494 28.6905 23.1122 28.3592C22.9751 28.0278 22.774 27.7267 22.5205 27.4731C22.267 27.2195 21.966 27.0183 21.6348 26.881C21.3035 26.7437 20.9484 26.6729 20.5898 26.6729H43.0365C43.7607 26.6732 44.4551 26.9611 44.967 27.4733C45.4789 27.9855 45.7665 28.68 45.7665 29.4042Z" fill="#292D32"/>
<path d="M50.5154 22.118L31.8814 15.8073V12.834C31.8814 12.7228 31.8595 12.6126 31.8169 12.5098C31.7743 12.4071 31.7119 12.3137 31.6332 12.2351C31.5545 12.1565 31.4611 12.0941 31.3583 12.0516C31.2555 12.0091 31.1453 11.9872 31.0341 11.9873C29.2987 11.9873 27.8874 10.5753 27.8874 8.84C27.8874 7.10467 29.2994 5.69333 31.0341 5.69333C32.7687 5.69333 34.1814 7.10533 34.1814 8.84067C34.1814 9.0653 34.2706 9.28074 34.4295 9.43959C34.5883 9.59843 34.8038 9.68767 35.0284 9.68767C35.253 9.68767 35.4685 9.59843 35.6273 9.43959C35.7862 9.28074 35.8754 9.0653 35.8754 8.84067C35.8754 6.17133 33.7034 4 31.0347 4C28.3661 4 26.1947 6.17133 26.1947 8.84C26.1947 11.22 27.9214 13.2047 30.1881 13.606V15.8067L11.5547 22.1173C10.7029 22.4032 9.96318 22.9511 9.44139 23.6827C8.91661 24.4117 8.63504 25.2877 8.63673 26.186C8.63796 27.3246 9.09083 28.4163 9.89597 29.2214C10.7011 30.0266 11.7928 30.4794 12.9314 30.4807H15.4527V42.7767C15.4526 42.8879 15.4745 42.9981 15.517 43.1009C15.5595 43.2037 15.6218 43.2971 15.7005 43.3758C15.7791 43.4545 15.8725 43.5169 15.9752 43.5595C16.078 43.6021 16.1882 43.624 16.2994 43.624H20.4547C20.6794 43.624 20.8948 43.5348 21.0536 43.3759C21.2125 43.2171 21.3017 43.0016 21.3017 42.777C21.3017 42.5524 21.2125 42.3369 21.0536 42.1781C20.8948 42.0192 20.6794 41.93 20.4547 41.93H17.1461V30.4813H22.4761V54.3533C22.476 54.4646 22.4978 54.5747 22.5403 54.6775C22.5828 54.7803 22.6452 54.8738 22.7238 54.9524C22.8024 55.0311 22.8958 55.0936 22.9986 55.1362C23.1013 55.1787 23.2115 55.2007 23.3227 55.2007H26.4174C26.642 55.2007 26.8575 55.1114 27.0163 54.9526C27.1752 54.7937 27.2644 54.5783 27.2644 54.3537C27.2644 54.129 27.1752 53.9136 27.0163 53.7548C26.8575 53.5959 26.642 53.5067 26.4174 53.5067H24.1694V29.4047C24.1702 28.7387 23.9837 28.0858 23.6314 27.5207H43.0394C43.5388 27.5214 44.0176 27.7201 44.3708 28.0733C44.724 28.4264 44.9227 28.9052 44.9234 29.4047V38.63C44.9234 38.7412 44.9452 38.8513 44.9878 38.9541C45.0303 39.0568 45.0927 39.1502 45.1713 39.2288C45.2499 39.3075 45.3433 39.3699 45.446 39.4124C45.5487 39.455 45.6589 39.4769 45.7701 39.4769C45.8813 39.4769 45.9914 39.455 46.0941 39.4124C46.1969 39.3699 46.2902 39.3075 46.3688 39.2288C46.4474 39.1502 46.5098 39.0568 46.5523 38.9541C46.5949 38.8513 46.6168 38.7412 46.6167 38.63V30.4813H49.1387C50.2867 30.4813 51.3654 30.0347 52.1767 29.224C52.5765 28.8257 52.8933 28.3522 53.109 27.8307C53.3247 27.3093 53.435 26.7503 53.4334 26.186C53.4338 25.2879 53.1524 24.4123 52.6289 23.6825C52.1055 22.9527 51.3662 22.4055 50.5154 22.118ZM22.3701 28.788H17.2521C17.3804 28.4185 17.6205 28.0981 17.9391 27.8711C18.2576 27.6442 18.6389 27.5219 19.0301 27.5213H20.5914C20.9827 27.5216 21.3642 27.6437 21.6829 27.8707C22.0017 28.0977 22.2418 28.4183 22.3701 28.788ZM50.9781 28.026C50.7369 28.2683 50.4502 28.4604 50.1343 28.5912C49.8185 28.722 49.4799 28.7889 49.1381 28.788H46.5627C46.4164 27.9594 45.9832 27.2087 45.339 26.6675C44.6949 26.1262 43.8808 25.8288 43.0394 25.8273H19.0301C18.1887 25.8285 17.3745 26.1259 16.7304 26.6672C16.0863 27.2085 15.6533 27.9594 15.5074 28.788H12.9314C12.4533 28.787 11.9847 28.6544 11.5769 28.4048C11.1691 28.1551 10.8379 27.7981 10.6196 27.3727C10.4013 26.9474 10.3042 26.4701 10.3391 25.9933C10.374 25.5164 10.5395 25.0584 10.8174 24.6693C11.1336 24.2267 11.5816 23.8954 12.0974 23.7227L31.0354 17.3093L49.9727 23.7233C50.4881 23.8974 50.9358 24.2288 51.2528 24.6709C51.5697 25.113 51.7399 25.6434 51.7394 26.1873C51.7403 26.5289 51.6735 26.8673 51.5428 27.1829C51.4121 27.4985 51.2202 27.7851 50.9781 28.026ZM45.7694 40.7067C45.6582 40.7067 45.5481 40.7286 45.4454 40.7711C45.3427 40.8137 45.2493 40.876 45.1707 40.9547C45.0921 41.0333 45.0297 41.1266 44.9872 41.2293C44.9446 41.3321 44.9227 41.4422 44.9227 41.5533V53.5067H29.5734C29.3488 53.5067 29.1333 53.5959 28.9745 53.7548C28.8156 53.9136 28.7264 54.129 28.7264 54.3537C28.7264 54.5783 28.8156 54.7937 28.9745 54.9526C29.1333 55.1114 29.3488 55.2007 29.5734 55.2007H45.7694C45.8807 55.2008 45.9909 55.1789 46.0938 55.1363C46.1966 55.0938 46.29 55.0314 46.3687 54.9527C46.4474 54.874 46.5098 54.7805 46.5524 54.6777C46.595 54.5749 46.6168 54.4646 46.6167 54.3533V41.5533C46.6167 41.4421 46.5948 41.3319 46.5522 41.2292C46.5096 41.1264 46.4472 41.033 46.3685 40.9544C46.2898 40.8758 46.1964 40.8134 46.0936 40.7709C45.9908 40.7284 45.8806 40.7066 45.7694 40.7067Z" fill="#292D32"/>
</svg>
