<svg width="335" height="66" viewBox="0 0 335 66" fill="none" xmlns="http://www.w3.org/2000/svg">
<path d="M0 28L38.8261 28V66H0L7.76522 47L0 28Z" fill="#73BDB5"/>
<path d="M38 65L20.5 47H38V65Z" fill="#2C707F"/>
<path d="M334.826 28L296 28V66H334.826L327.061 47L334.826 28Z" fill="#73BDB5"/>
<path d="M296.5 65L314 47H296.5V65Z" fill="#2C707F"/>
<rect x="26" width="288" height="46" fill="#73BDB5"/>
<path d="M128.292 30.424H134.872V33H125.1V13.54H128.292V30.424ZM140.705 13.54V25.944C140.705 27.4187 141.088 28.5293 141.853 29.276C142.637 30.0227 143.72 30.396 145.101 30.396C146.501 30.396 147.584 30.0227 148.349 29.276C149.133 28.5293 149.525 27.4187 149.525 25.944V13.54H152.717V25.888C152.717 27.4747 152.372 28.8187 151.681 29.92C150.991 31.0213 150.067 31.8427 148.909 32.384C147.752 32.9253 146.473 33.196 145.073 33.196C143.673 33.196 142.395 32.9253 141.237 32.384C140.099 31.8427 139.193 31.0213 138.521 29.92C137.849 28.8187 137.513 27.4747 137.513 25.888V13.54H140.705ZM172.861 33H169.669L160.065 18.468V33H156.873V13.512H160.065L169.669 28.016V13.512H172.861V33ZM175.989 23.228C175.989 21.324 176.428 19.616 177.305 18.104C178.201 16.592 179.405 15.416 180.917 14.576C182.448 13.7173 184.118 13.288 185.929 13.288C188.001 13.288 189.84 13.8013 191.445 14.828C193.069 15.836 194.245 17.2733 194.973 19.14H191.137C190.633 18.1133 189.933 17.348 189.037 16.844C188.141 16.34 187.105 16.088 185.929 16.088C184.641 16.088 183.493 16.3773 182.485 16.956C181.477 17.5347 180.684 18.3653 180.105 19.448C179.545 20.5307 179.265 21.7907 179.265 23.228C179.265 24.6653 179.545 25.9253 180.105 27.008C180.684 28.0907 181.477 28.9307 182.485 29.528C183.493 30.1067 184.641 30.396 185.929 30.396C187.105 30.396 188.141 30.144 189.037 29.64C189.933 29.136 190.633 28.3707 191.137 27.344H194.973C194.245 29.2107 193.069 30.648 191.445 31.656C189.84 32.664 188.001 33.168 185.929 33.168C184.1 33.168 182.429 32.748 180.917 31.908C179.405 31.0493 178.201 29.864 177.305 28.352C176.428 26.84 175.989 25.132 175.989 23.228ZM214.249 13.54V33H211.057V24.488H201.901V33H198.709V13.54H201.901V21.884H211.057V13.54H214.249Z" fill="#212121"/>
</svg>
